<svg xmlns="http://www.w3.org/2000/svg" width="64" height="64" viewBox="0 0 64 64">
  <g fill="none">
    <rect width="64" height="64" fill="#555" rx="32"/>
    <path fill="#BBB" d="M31.9957471,1.375 C32.4380468,1.375 32.8803465,1.39201153 33.3226462,1.40902305 C33.9180496,2.4127031 34.9982815,3.09316414 36.2486287,3.09316414 C37.1842626,3.09316414 38.0348389,2.71891057 38.6472539,2.10649563 C39.5148417,2.30212818 40.365418,2.52327802 41.1989828,2.78695667 C41.5051903,3.91822316 42.3812838,4.86236287 43.5891022,5.18558186 C44.4907131,5.43224899 45.4093355,5.28765102 46.1578427,4.8538571 C46.9403729,5.26213373 47.7058915,5.70443341 48.4458929,6.18075614 C48.4543987,7.34604569 49.0498021,8.47731218 50.130034,9.09823288 C50.9380815,9.56604985 51.8652097,9.65961325 52.6987745,9.43846341 C53.3452125,10.0338668 53.9746389,10.6632933 54.5700424,11.3097313 C54.2808464,12.432492 54.5615366,13.6828392 55.446136,14.5674385 C56.1095855,15.2308881 56.9686675,15.5541071 57.8362554,15.5626128 C58.3125781,16.3026142 58.7548778,17.0681329 59.1631544,17.8506631 C58.5847625,18.8628489 58.533728,20.1472191 59.1631544,21.227451 C59.6309714,22.0354985 60.3794785,22.5798674 61.2215491,22.809523 C61.4852277,23.6430878 61.7063776,24.4936641 61.8935044,25.3612519 C61.0769511,26.1863109 60.6941918,27.4111408 61.0174108,28.6189592 C61.2640779,29.5205701 61.8424698,30.2435599 62.5909769,30.6773538 C62.6079885,31.1196535 62.625,31.5534474 62.625,31.9957471 C62.625,32.4380468 62.6079885,32.8803465 62.5909769,33.3226462 C61.5872969,33.9180496 60.9068359,34.9982815 60.9068359,36.2486287 C60.9068359,37.1842626 61.2810894,38.0348389 61.8935044,38.6472539 C61.6978718,39.5148417 61.476722,40.365418 61.2130433,41.1989828 C60.0817768,41.5051903 59.1376371,42.3812838 58.8144181,43.5891022 C58.567751,44.4907131 58.712349,45.4093355 59.1461429,46.1578427 C58.7378663,46.9403729 58.2955666,47.7058915 57.8192439,48.4458929 C56.6539543,48.4543987 55.5226878,49.0498021 54.9017671,50.130034 C54.4339501,50.9380815 54.3403868,51.8652097 54.5615366,52.6987745 C53.9661332,53.3537182 53.3367067,53.9746389 52.6902687,54.5700424 C51.567508,54.2808464 50.3171608,54.5615366 49.4325614,55.446136 C48.7691119,56.1095855 48.4458929,56.9686675 48.4373872,57.8362554 C47.6973858,58.3125781 46.9318671,58.7548778 46.1493369,59.1631544 C45.1371511,58.5847625 43.8527809,58.533728 42.772549,59.1631544 C41.9645015,59.6309714 41.4201326,60.3794785 41.190477,61.2215491 C40.3569122,61.4852277 39.5063359,61.7063776 38.6387481,61.8935044 C37.8136891,61.0769511 36.5888592,60.6941918 35.3810408,61.0174108 C34.4794299,61.2555721 33.7649458,61.833964 33.3226462,62.5909769 C32.8803465,62.6079885 32.4465526,62.625 32.0042529,62.625 C31.5619532,62.625 31.1196535,62.6079885 30.6773538,62.5909769 C30.0819504,61.5872969 29.0017185,60.9068359 27.7513713,60.9068359 C26.8157374,60.9068359 25.9651611,61.2810894 25.3527461,61.8935044 C24.4851583,61.6978718 23.634582,61.476722 22.8010172,61.2130433 C22.4948097,60.0817768 21.6187162,59.1376371 20.4108978,58.8144181 C19.5092869,58.567751 18.5906645,58.712349 17.8421573,59.1461429 C17.0596271,58.7378663 16.2941085,58.2955666 15.5541071,57.8192439 C15.5456013,56.6539543 14.9501979,55.5226878 13.869966,54.9017671 C13.0619185,54.4339501 12.1347903,54.3403868 11.3012255,54.5615366 C10.6462818,53.9661332 10.0253611,53.3367067 9.42995764,52.6902687 C9.71915359,51.567508 9.43846341,50.3171608 8.55386405,49.4325614 C7.89041453,48.7691119 7.03133245,48.4458929 6.16374462,48.4373872 C5.68742189,47.6973858 5.24512221,46.9318671 4.83684558,46.1493369 C5.41523747,45.1371511 5.46627205,43.8527809 4.83684558,42.772549 C4.36902861,41.9645015 3.62052146,41.4201326 2.77845091,41.190477 C2.51477225,40.3569122 2.29362241,39.5063359 2.10649563,38.6387481 C2.92304888,37.8136891 3.30580822,36.5888592 2.98258922,35.3810408 C2.73592209,34.4794299 2.1575302,33.7564401 1.40902305,33.3226462 C1.39201153,32.8803465 1.375,32.4465526 1.375,32.0042529 C1.375,31.5619532 1.39201153,31.1196535 1.40902305,30.6773538 C2.4127031,30.0819504 3.09316414,29.0017185 3.09316414,27.7513713 C3.09316414,26.8157374 2.71891057,25.9651611 2.10649563,25.3527461 C2.30212818,24.4851583 2.52327802,23.634582 2.78695667,22.8010172 C3.91822316,22.4948097 4.86236287,21.6187162 5.18558186,20.4108978 C5.43224899,19.5092869 5.28765102,18.5906645 4.8538571,17.8421573 C5.26213373,17.0596271 5.70443341,16.2941085 6.18075614,15.5541071 C7.34604569,15.5456013 8.47731218,14.9501979 9.09823288,13.869966 C9.56604985,13.0619185 9.65961325,12.1347903 9.43846341,11.3012255 C10.0338668,10.6462818 10.6632933,10.0253611 11.3097313,9.42995764 C12.432492,9.71915359 13.6828392,9.43846341 14.5674386,8.55386405 C15.2308881,7.89041453 15.5541071,7.03133245 15.5626128,6.16374462 C16.3026142,5.68742189 17.0681329,5.2451222 17.8506631,4.83684558 C18.8628489,5.41523747 20.1472191,5.46627205 21.227451,4.83684558 C22.0354985,4.36902861 22.5798674,3.62052146 22.809523,2.77845091 C23.6430878,2.51477225 24.4936641,2.29362241 25.3612519,2.10649563 C26.1863109,2.92304888 27.4111408,3.30580822 28.6189592,2.98258922 C29.5205701,2.73592209 30.2435599,2.1575302 30.6773538,1.40902305 C31.1196535,1.39201153 31.5534474,1.375 31.9957471,1.375 Z M28.3462782,42.4161698 L28.3462782,42.7819813 C28.4655057,42.7729489 28.6244756,42.7646391 28.823188,42.7570519 L28.979674,42.751497 L29.5216169,42.751497 L29.3793569,44.00474 L28.8238654,44.00474 L28.8238654,43.4187642 L28.827676,43.3203253 C28.8327567,43.2579454 28.8429181,43.2020576 28.8581603,43.1526617 L28.884834,43.083437 L28.8975358,43.0563399 L28.9017697,43.036017 L28.8775893,43.0215276 C28.8341837,43.0039646 28.7461179,42.9934268 28.6133921,42.9899142 L28.505474,42.988597 L28.505474,43.9403843 L28.5017105,44.0408695 L28.49042,44.1526452 L28.4716025,44.2757114 L28.4595594,44.3238841 L28.458054,44.33668 L28.5236799,44.3233431 C28.5739225,44.3157221 28.6371492,44.3106413 28.7133599,44.308101 L28.837414,44.3061957 L29.7756527,44.3061957 L29.7677494,44.4710837 C29.7414049,44.9964046 29.7150605,45.2786665 29.688716,45.3178696 L29.6808127,45.3223387 L29.6543506,45.354199 C29.5891481,45.4105103 29.4502752,45.4223653 29.237732,45.389764 L29.1253212,45.3697587 L29.1831736,45.4318112 C29.2352001,45.4990121 29.269749,45.5816584 29.2868202,45.6797501 L29.2980655,45.7829902 L29.440602,45.7740039 C29.6657203,45.7521142 29.8286258,45.6956618 29.9293184,45.6046467 L29.9822684,45.5458902 L30.0005929,45.5212318 C30.0477419,45.4330757 30.0811617,45.1657172 30.1008523,44.7191562 L30.1075927,44.5432958 L30.114367,44.3899259 C30.1215929,44.2376038 30.1288188,44.1213534 30.1360447,44.0411748 L30.1414642,43.9878043 L30.0823924,43.9939011 C30.0157334,43.9993205 29.9263128,44.0027077 29.8141306,44.0040625 L29.6943613,44.00474 L29.8704927,42.4331055 L29.7745942,42.4464424 C29.70544,42.4540634 29.6258422,42.4591442 29.5358006,42.4616845 L29.3929055,42.4635898 L28.9661254,42.4635898 L28.7482192,42.4583209 C28.6067119,42.4512957 28.4727316,42.4372453 28.3462782,42.4161698 Z M35.4118591,43.4187642 L35.3644391,43.4187642 L35.3644391,43.7811885 L35.4287948,43.7811885 L35.590625,43.7642528 L35.7599821,43.7540914 L35.9368663,43.7507042 L36.3331621,43.7507042 L36.3331621,44.33668 L35.7912191,44.33668 L35.621862,44.3408199 L35.4525048,44.3306584 L35.2831476,44.3061957 L35.2357276,44.3061957 L35.2357276,44.6550715 L35.2831476,44.6550715 L35.392383,44.6417346 C35.4691583,44.6341135 35.5538368,44.6290328 35.6464188,44.6264925 L35.7912191,44.6245872 L36.3331621,44.6245872 L36.3331621,45.3697587 L35.3949234,45.3697587 L35.1992218,45.3663716 L35.0140579,45.3562101 L34.8394319,45.3392744 L34.7920119,45.3392744 L34.7920119,45.6881502 L34.8563676,45.6881502 L35.0385206,45.6712145 L35.2236845,45.661053 L35.4118591,45.6576659 L37.6812451,45.6576659 L37.8260455,45.6595712 C37.9186274,45.6621115 38.003306,45.6671922 38.0800812,45.6748133 L38.1893166,45.6881502 L38.2536723,45.6881502 L38.2536723,45.3392744 L38.2062523,45.3392744 L38.048562,45.3562101 C37.9746302,45.3622317 37.895569,45.3662461 37.8113783,45.3682533 L37.6812451,45.3697587 L36.6651021,45.3697587 L36.6651021,44.6076515 L37.2680136,44.6076515 L37.4339836,44.611415 L37.5931794,44.6227054 L37.7456008,44.6415229 L37.7930208,44.6415229 L37.7930208,44.3061957 L37.7625365,44.3061957 L37.666638,44.3195326 C37.5974838,44.3271537 37.517886,44.3322344 37.4278444,44.3347747 L37.2849493,44.33668 L36.6651021,44.33668 L36.6651021,43.7507042 L37.159625,43.7507042 L37.2738395,43.7519236 C37.3816861,43.7543623 37.4704293,43.7604592 37.5400689,43.7702142 L37.6033408,43.7811885 L37.6507608,43.7811885 L37.6507608,43.4187642 L37.6168894,43.4187642 L37.5298821,43.4395104 C37.4658087,43.4513654 37.3895979,43.4592688 37.3012499,43.4632204 L37.159625,43.4661842 L35.9368663,43.4661842 L35.7505734,43.4609153 C35.6301417,43.4538901 35.5172369,43.4398397 35.4118591,43.4187642 Z M31.3472872,43.4187642 L31.2998672,43.4187642 L31.2998672,43.7811885 L31.3642229,43.7811885 L31.5260531,43.7642528 L31.6954102,43.7540914 L31.8722944,43.7507042 L32.2685901,43.7507042 L32.2685901,44.33668 L31.7266472,44.33668 L31.5572901,44.3408199 L31.3879329,44.3306584 L31.2185757,44.3061957 L31.1711557,44.3061957 L31.1711557,44.6550715 L31.2185757,44.6550715 L31.3278111,44.6417346 C31.4045863,44.6341135 31.4892649,44.6290328 31.5818468,44.6264925 L31.7266472,44.6245872 L32.2685901,44.6245872 L32.2685901,45.3697587 L31.3303515,45.3697587 L31.1346498,45.3663716 L30.949486,45.3562101 L30.77486,45.3392744 L30.7274399,45.3392744 L30.7274399,45.6881502 L30.7917957,45.6881502 L30.9739487,45.6712145 L31.1591125,45.661053 L31.3472872,45.6576659 L33.6166732,45.6576659 L33.7614735,45.6595712 C33.8540554,45.6621115 33.938734,45.6671922 34.0155093,45.6748133 L34.1247446,45.6881502 L34.1891004,45.6881502 L34.1891004,45.3392744 L34.1416804,45.3392744 L33.98399,45.3562101 C33.9100583,45.3622317 33.8309971,45.3662461 33.7468064,45.3682533 L33.6166732,45.3697587 L32.6005302,45.3697587 L32.6005302,44.6076515 L33.2034417,44.6076515 L33.3694117,44.611415 L33.5286074,44.6227054 L33.6810289,44.6415229 L33.7284489,44.6415229 L33.7284489,44.3061957 L33.6979646,44.3061957 L33.6020661,44.3195326 C33.5329119,44.3271537 33.4533141,44.3322344 33.3632725,44.3347747 L33.2203774,44.33668 L32.6005302,44.33668 L32.6005302,43.7507042 L33.0950531,43.7507042 L33.2092676,43.7519236 C33.3171142,43.7543623 33.4058574,43.7604592 33.475497,43.7702142 L33.5387689,43.7811885 L33.5861889,43.7811885 L33.5861889,43.4187642 L33.5523174,43.4187642 L33.4653102,43.4395104 C33.4012367,43.4513654 33.325026,43.4592688 33.236678,43.4632204 L33.0950531,43.4661842 L31.8722944,43.4661842 L31.6860015,43.4609153 C31.5655697,43.4538901 31.452665,43.4398397 31.3472872,43.4187642 Z M28.1565982,42.4974612 L28.0853327,42.509113 C28.00648,42.5202228 27.9048657,42.5297068 27.7804898,42.537565 L27.6485267,42.5448812 L27.1404552,42.5448812 L27.0049695,42.5396123 C26.9417428,42.5349289 26.8745018,42.5271231 26.8032463,42.516195 L26.6933523,42.4974612 L26.6933523,42.8632727 C26.7291055,42.8444552 26.8346401,42.8334784 27.0099561,42.8303421 L27.1235195,42.8294013 L27.299651,42.8294013 L27.2235866,43.0536636 C27.0396184,43.5637392 26.8295704,43.9208604 26.5934427,44.1250272 L26.5036723,44.19442 L26.5898563,44.2851202 C26.6243131,44.3276058 26.6536405,44.3729907 26.6778384,44.421275 L26.710288,44.4958757 L26.7938827,44.3828806 C26.8716515,44.2774727 26.9319427,44.1948265 26.9747562,44.1349418 L27.0117438,44.0826443 L27.0117438,44.8955587 L27.00878,45.0630105 C27.0048284,45.1699878 26.996925,45.2676505 26.98507,45.3559984 L26.9643238,45.4815344 L27.347071,45.4815344 L27.3282535,45.2952416 L27.316963,45.115723 L27.3131995,44.9429787 L27.773851,44.9429787 L27.7734747,45.0303858 C27.7724711,45.1370181 27.7694603,45.2040082 27.7644423,45.2313563 L27.7603024,45.2444344 L28.1227268,45.2444344 L28.0963823,45.0810988 L28.0805757,44.9117417 L28.0753068,44.7363629 L28.0753068,43.8929642 L28.0805757,43.7815649 L28.0963823,43.6596277 L28.1227268,43.5271528 L28.0207361,43.5459702 L27.9044442,43.5572607 L27.773851,43.5610242 L27.347071,43.5610242 L27.6146553,42.8294013 L27.7492001,42.8303421 C27.916801,42.8328511 28.0372328,42.8403781 28.1104954,42.8529231 L28.1565982,42.8632727 L28.1565982,42.4974612 Z M33.2203774,44.7194272 L32.9358574,44.8955587 C33.0459395,44.997173 33.1356988,45.0994223 33.2051353,45.2023068 L33.2677974,45.305403 L33.6031246,45.0987872 L33.501722,44.9747331 C33.4022246,44.860417 33.3084431,44.7753151 33.2203774,44.7194272 Z M37.2849493,44.7194272 L37.0004293,44.8955587 C37.1105114,44.997173 37.2002707,45.0994223 37.2697072,45.2023068 L37.3323693,45.305403 L37.6676965,45.0987872 L37.5662939,44.9747331 C37.4667966,44.860417 37.373015,44.7753151 37.2849493,44.7194272 Z M29.5385527,44.6889429 L29.4282588,44.7096892 C29.3500723,44.7215442 29.2625711,44.7294475 29.1657552,44.7333992 L29.0135455,44.7363629 L28.7120897,44.7363629 L28.6236006,44.7333992 C28.5586803,44.7294475 28.4819051,44.7215442 28.3932748,44.7096892 L28.2514382,44.6889429 L28.2514382,45.0513672 L28.3532642,45.0380304 C28.4258055,45.0304093 28.5076615,45.0253286 28.5988321,45.0227882 L28.742574,45.020883 L28.9966097,45.020883 L29.1847844,45.0242701 L29.365432,45.0344315 L29.5385527,45.0513672 L29.5385527,44.6889429 Z M27.773851,43.81506 L27.773851,44.6720072 L27.3131995,44.6720072 L27.3131995,43.81506 L27.773851,43.81506 Z M36.6515535,42.2739098 L36.238322,42.3382655 C36.2804732,42.4300947 36.3155991,42.5219239 36.3436998,42.6137531 L36.3805821,42.751497 L35.2695991,42.751497 L35.1400747,42.7501421 C35.0126097,42.7472517 34.9193667,42.7397368 34.8603455,42.7275973 L34.8224962,42.7176255 L34.8413136,42.8327884 C34.8480043,42.8879863 34.8524647,42.9485367 34.8546949,43.0144396 L34.8563676,43.1173084 L34.8526041,43.2479016 L34.8413136,43.3687097 L34.8224962,43.4797328 L34.8224962,43.5136042 L35.2052434,43.5136042 L35.2052434,43.4492485 L35.1925416,43.2426327 L35.1883076,43.036017 L37.8404408,43.036017 L37.8374771,43.1797589 C37.8335254,43.2709295 37.8256221,43.3527855 37.8137671,43.4253268 L37.7930208,43.5271528 L38.2062523,43.5271528 L38.2062523,43.4966685 L38.1893166,43.3777421 L38.1791551,43.255805 L38.175768,43.130857 L38.1769874,43.0124425 C38.1794261,42.90297 38.185523,42.8203237 38.1952779,42.7645036 L38.2062523,42.7176255 L38.1593742,42.7298192 C38.1035541,42.7406581 38.0209078,42.7474324 37.9114353,42.7501421 L37.7930208,42.751497 L36.7599421,42.751497 L36.7343504,42.578 C36.7137766,42.4671024 36.6861777,42.365739 36.6515535,42.2739098 Z M32.5869816,42.2739098 L32.1737501,42.3382655 C32.2159012,42.4300947 32.2510272,42.5219239 32.2791279,42.6137531 L32.3160101,42.751497 L31.2050272,42.751497 L31.0755028,42.7501421 C30.9480378,42.7472517 30.8547947,42.7397368 30.7957735,42.7275973 L30.7579242,42.7176255 L30.7767417,42.8327884 C30.7834324,42.8879863 30.7878928,42.9485367 30.790123,43.0144396 L30.7917957,43.1173084 L30.7880322,43.2479016 L30.7767417,43.3687097 L30.7579242,43.4797328 L30.7579242,43.5136042 L31.1406714,43.5136042 L31.1406714,43.4492485 L31.1279696,43.2426327 L31.1237357,43.036017 L33.7758689,43.036017 L33.7729051,43.1797589 C33.7689535,43.2709295 33.7610501,43.3527855 33.7491951,43.4253268 L33.7284489,43.5271528 L34.1416804,43.5271528 L34.1416804,43.4966685 L34.1247446,43.3777421 L34.1145832,43.255805 L34.1111961,43.130857 L34.1124154,43.0124425 C34.1148542,42.90297 34.120951,42.8203237 34.130706,42.7645036 L34.1416804,42.7176255 L34.0948023,42.7298192 C34.0389822,42.7406581 33.9563359,42.7474324 33.8468634,42.7501421 L33.7284489,42.751497 L32.6953702,42.751497 L32.6697784,42.578 C32.6492047,42.4671024 32.6216057,42.365739 32.5869816,42.2739098 Z M26.7085971,34.912892 L26.5189642,34.9294053 C25.2832064,35.0669528 24.6166684,35.7536889 24.5193502,36.9896137 L24.5090216,37.1791213 L24.5263717,37.3724257 C24.6392785,38.3145737 25.1445286,38.8911113 26.042122,39.1020384 L26.2268719,39.139349 L26.3046504,39.1402011 C26.461249,39.1269461 26.6240963,39.0239357 26.7931925,38.8311699 L26.8782613,38.7273073 L26.9789527,38.595047 C27.1990623,38.2983092 27.3153137,38.084658 27.3277069,37.9540933 L27.3266596,37.903224 L27.3209368,37.8402732 C27.305676,37.7639691 27.2598936,37.7181867 27.1835896,37.7029259 L27.1206387,37.6972031 L26.9479448,37.6972031 L26.8607563,37.7157181 L26.7809737,37.726827 L26.7085971,37.73053 L26.5982648,37.7129619 C26.2447977,37.6345539 26.0344006,37.3576713 25.9670735,36.8823141 L25.9511675,36.7337527 L25.9614219,36.5803486 C26.0161122,36.0364693 26.2588004,35.6972186 26.6894865,35.5625963 L26.8116075,35.5309546 L26.9334695,35.5133747 C27.1989626,35.4674676 27.3324946,35.3873484 27.3340656,35.2730171 L27.3266596,35.2219233 L27.3190292,35.1570649 C27.2783337,34.994283 27.0748563,34.912892 26.7085971,34.912892 Z M15.504699,32.816327 L15.2838208,32.8462253 C13.5519695,33.1134514 12.5893193,34.062411 12.3958703,35.6931041 L12.375,35.9096694 L12.4009767,36.1268507 C12.6599352,37.9764009 13.7983879,38.9760637 15.8163349,39.1258389 L16.053078,39.139349 L16.298548,39.1341178 C17.5003712,39.0818053 18.3192863,38.6371496 18.7552931,37.8001506 L18.837389,37.6275196 L18.8325044,37.5543735 C18.8162222,37.4418412 18.7592347,37.3761973 18.6615417,37.3574419 L18.5980413,37.3518152 L18.5468727,37.357538 C18.4723641,37.3727988 18.37272,37.4185813 18.2479405,37.4948853 L18.149643,37.5578361 L17.960475,37.6870725 C17.5810027,37.9283138 17.1947137,38.066166 16.8016077,38.100629 L16.6044867,38.1092448 L16.4170508,38.09007 C15.1347346,37.9271104 14.4131025,37.1556956 14.2521544,35.7758254 L14.2322173,35.5642815 L14.2417104,35.3669862 C14.3047285,34.5305955 14.6522036,33.9354241 15.2841355,33.5814723 L15.4350154,33.5040731 L15.5492844,33.4578418 C15.7981951,33.3489216 15.9230868,33.2326701 15.9239596,33.1090876 L15.9167406,33.0556748 L15.9103025,32.9995776 C15.8802578,32.8774106 15.7450566,32.816327 15.504699,32.816327 Z M28.4597742,32.816327 L28.3732455,32.8245678 C28.2825963,32.8410495 28.1795859,32.8822537 28.0642142,32.9481804 L27.9447221,33.0223479 L27.8292141,33.0863507 C27.754986,33.1262419 27.6863124,33.1605787 27.6231933,33.1893611 L27.5326804,33.2283687 L27.3957821,33.2949103 C27.0962514,33.4451993 26.936013,33.5606652 26.9150668,33.6413081 L26.9146179,33.6737373 L26.9111674,33.7220445 C26.9181245,33.7889227 26.9713129,33.8656755 27.0707326,33.952303 L27.1539657,34.0191252 L27.1778668,34.0228281 L27.2010946,34.0339371 L27.2236492,34.0524521 L27.3022722,34.0975986 C27.4728092,34.2187375 27.5529284,34.4504548 27.5426299,34.7927506 L27.5326804,34.9462189 L27.5326804,37.3851421 L27.5336062,37.5844303 C27.5360748,37.8398243 27.5434808,38.0539244 27.5558241,38.2267305 L27.5660073,38.3485925 L27.6013874,38.4858313 C27.7194713,38.8779419 27.9450476,39.0936028 28.2781163,39.1328138 L28.3931204,39.139349 L28.5109218,39.1324269 C28.8956679,39.0862798 29.2011645,38.8093973 29.4274115,38.3017792 L29.4929081,38.1425717 L29.4861754,38.0776852 C29.4682216,37.9962195 29.4143599,37.9349518 29.3245905,37.8938823 L29.2505307,37.8668673 L29.1786222,37.8184865 C29.045504,37.7097954 28.9765779,37.5295272 28.9718439,37.2776818 L28.9748263,37.1457944 L28.9748263,33.6404104 L28.9705697,33.4973876 C28.9421922,33.0433472 28.771927,32.816327 28.4597742,32.816327 Z M32.4468834,34.8432085 L32.281869,34.851393 C31.759331,34.8870805 31.4546884,35.008689 31.3679412,35.2162184 L31.3470957,35.2885771 L31.3541444,35.335816 C31.3767004,35.4080346 31.4533906,35.4641079 31.5842151,35.5040358 L31.6924836,35.5309546 L31.8365164,35.5826113 C32.2023448,35.7304615 32.4221003,35.9591043 32.4957831,36.2685395 L32.516567,36.3883648 L31.4167792,37.2488048 L31.3804226,37.2154779 L31.2971054,37.0558286 C31.1961148,36.8441972 31.1355204,36.6375031 31.1153223,36.4357463 L31.107748,36.2853544 L31.111451,36.1756113 L31.1225599,36.0726009 L31.1410749,35.9763232 L31.1556554,35.8998228 C31.1639871,35.854377 31.1695416,35.8200402 31.1723188,35.7968123 L31.1744018,35.7703023 L31.1695171,35.6890564 C31.153235,35.5653944 31.0962474,35.5004719 30.9985545,35.4942888 L30.935054,35.4976277 L30.8019938,35.5465051 C30.2916236,35.7594458 29.9978374,36.1962875 29.9206351,36.8570302 L29.9049498,37.042784 L29.9255602,37.2283594 C30.0842872,38.3765195 30.7787178,39.0088169 32.0088521,39.1252515 L32.2075357,39.139349 L32.4047609,39.1344742 C33.366513,39.0857261 33.9626546,38.6713676 34.1931858,37.8913986 L34.2344172,37.73053 L34.2295326,37.6485421 C34.2132504,37.5224069 34.1562628,37.4488281 34.0585699,37.4278055 L33.9950695,37.4214988 L33.951078,37.4297396 C33.9042991,37.4462213 33.8491582,37.4874254 33.7856553,37.5533521 L33.7193651,37.6275196 L33.6136563,37.7482349 C33.3968421,37.9735702 33.1476478,38.1023333 32.8660734,38.134524 L32.7225878,38.1425717 L32.5686287,38.1341627 C32.3180071,38.1061326 32.0972704,38.0080275 31.9064188,37.8398472 L31.795494,37.73053 L33.8223755,36.1490171 L33.8845453,36.0813938 C33.9398074,36.0152247 33.9743462,35.9534185 33.9881617,35.895975 L33.9950695,35.8399858 L33.9420225,35.7024295 C33.7078199,35.1724977 33.2094402,34.8860907 32.4468834,34.8432085 Z M35.9189406,34.8432085 L35.835078,34.8514494 C35.7497611,34.867931 35.6600814,34.9091352 35.566039,34.9750619 L35.4705423,35.0492294 L35.3698041,35.1289488 C35.3041602,35.1776768 35.2415461,35.2175681 35.1819616,35.2486227 L35.0948572,35.2885771 L35.0683472,35.3088383 C35.0451193,35.3237345 35.0107825,35.3414078 34.9653367,35.3618584 L34.8888364,35.3946172 L34.788361,35.4438347 C34.6337835,35.5271004 34.5436134,35.6165493 34.5178504,35.7121812 L34.5101216,35.7703023 L34.5183624,35.8393799 C34.5348441,35.9084575 34.5760482,35.977535 34.6419749,36.0466126 L34.7161424,36.1156902 L34.8069721,36.1965033 C34.9467102,36.3360352 35.028224,36.4997843 35.0515137,36.6877505 L35.0585006,36.8034362 L35.0585006,37.9365509 L35.0723043,38.1022424 C35.1429153,38.7404619 35.3982773,39.0841185 35.8383902,39.1332123 L35.9522675,39.139349 L36.0698374,39.1268514 C36.4530406,39.0620491 36.7492797,38.76581 36.9585547,38.2381341 L37.0187283,38.0728882 L37.0104875,38.0076886 C36.9940058,37.9451553 36.9528016,37.8906203 36.886875,37.8440839 L36.8127074,37.8002135 L36.7307196,37.736404 C36.6045844,37.6218105 36.5310055,37.4659965 36.5099829,37.2689617 L36.5036762,37.1457944 L36.5036762,35.7703023 L36.4996155,35.6222248 C36.4698373,35.1028806 36.276279,34.8432085 35.9189406,34.8432085 Z M40.7651832,32.8163057 L40.6604496,32.816327 L40.603027,32.8216764 C40.4763469,32.8430737 40.2786578,32.9286633 40.0099597,33.078445 L39.8696932,33.1586852 L39.7999722,33.2006524 C39.652127,33.2896737 39.60814,33.3163801 39.6680112,33.2807716 L39.596655,33.3251985 C39.5001887,33.3831267 39.4244458,33.4243309 39.3694261,33.448811 L39.3213142,33.4677164 L39.2987596,33.4879146 L39.2755318,33.5000334 L39.2516306,33.5040731 L39.2105611,33.522588 L39.1762243,33.533697 L39.1486202,33.5374 L39.0440108,33.6051478 C38.9172115,33.694244 38.8411319,33.7784028 38.815772,33.8576243 L38.8062621,33.9161147 L38.8043453,33.9742977 C38.8152688,34.0701357 38.8967826,34.1603059 39.0488868,34.2448083 L39.1486202,34.2948295 L39.2634877,34.3448386 C39.5136202,34.4713885 39.638512,34.6669737 39.6381628,34.931594 L39.6303454,35.0492294 L39.6303454,37.042784 L39.6318728,37.2056877 C39.6229701,37.6715984 39.4947045,37.9884705 39.247076,38.1563039 L39.1486202,38.2122552 L39.039303,38.2547331 C38.8711228,38.3314035 38.7730176,38.4374437 38.7449876,38.5728535 L38.7365785,38.6576238 L38.7431227,38.7491516 C38.7780251,38.9803797 38.9525369,39.1088397 39.266658,39.1345318 L39.3909977,39.139349 L39.5694144,39.135646 L39.7410985,39.1245371 L39.9060498,39.1060221 L40.0026221,39.0901161 C40.0627115,39.0810269 40.1142167,39.0749675 40.1571377,39.0719378 L40.215081,39.0696655 L40.3750996,39.0608237 C40.6198514,39.047765 40.8104689,39.0399297 40.9469522,39.037318 L41.0391644,39.0363386 L41.1590201,39.0376717 C41.2884496,39.0403378 41.4466009,39.0470032 41.6334739,39.0576678 L41.8299209,39.0696655 L41.9063371,39.0737051 C41.943741,39.0772959 41.9857332,39.0832805 42.0323135,39.091659 L42.1056252,39.1060221 L42.2649637,39.1148639 C42.5176463,39.1284668 42.7059217,39.1364017 42.8297897,39.1386689 L42.8963817,39.139349 L43.0977309,39.1321972 C44.3399045,39.0619052 45.0230301,38.5156001 45.1471077,37.4932822 L45.162611,37.3184883 L45.1492968,37.1602211 C45.0639124,36.4447815 44.6530068,36.0533167 43.9165802,35.9858265 L43.753792,35.9763232 L43.6057145,35.9791846 C43.1383047,35.9980698 42.8812293,36.110437 42.8344883,36.3162862 L42.8266982,36.3883648 L42.8362721,36.4439905 C42.8554199,36.4994949 42.9032895,36.5546358 42.9798807,36.6094131 L43.0660459,36.6640692 L43.1665213,36.7360405 C43.3210987,36.8605268 43.4112689,37.0076846 43.4370318,37.1775137 L43.4447607,37.2821317 L43.4298276,37.4197348 C43.3402113,37.9990732 42.9294938,38.3170857 42.1976749,38.3737722 L42.0359417,38.3819194 L41.8770709,38.3777536 C41.7682535,38.3721991 41.6536291,38.3610901 41.5331978,38.3444267 L41.3481957,38.3152656 L41.2451853,38.3152656 L41.2451853,33.6070835 L41.2516212,33.4849446 C41.259444,33.0593825 41.097298,32.8365028 40.7651832,32.8163057 Z M47.2271064,32.8163057 L47.1228387,32.816327 L47.065416,32.8216764 C46.9387359,32.8430737 46.7410468,32.9286633 46.4723487,33.078445 L46.3320822,33.1586852 L46.2623239,33.2006524 C46.2411782,33.2133697 46.2221396,33.2248153 46.2052081,33.2349892 L46.145,33.27 L46.143,33.271 L46.057105,33.3251985 C45.9616083,33.3831267 45.8864712,33.4243309 45.8316939,33.448811 L45.7837032,33.4677164 L45.7598021,33.4879146 L45.7365743,33.5000334 L45.7140197,33.5040731 L45.6716036,33.522588 L45.6372668,33.533697 L45.6110093,33.5374 L45.5193757,33.5955829 C45.3840401,33.6875874 45.3028387,33.7743684 45.2757716,33.855926 L45.2656214,33.9161147 L45.2645084,33.9742977 C45.2766685,34.0701357 45.3589037,34.1603059 45.5112141,34.2448083 L45.6110093,34.2948295 L45.7252783,34.3448386 C45.9741889,34.4713885 46.0990807,34.6669737 46.0999534,34.931594 L46.0927345,35.0492294 L46.0927345,37.042784 L46.0942618,37.2056877 C46.0853591,37.6715984 45.9570935,37.9884705 45.7094651,38.1563039 L45.6110093,38.2122552 L45.5016921,38.2547331 C45.3335118,38.3314035 45.2354066,38.4374437 45.2073766,38.5728535 L45.1989676,38.6576238 L45.2054815,38.7491516 C45.2402222,38.9803797 45.4139261,39.1088397 45.726593,39.1345318 L45.850357,39.139349 L46.0301203,39.135646 L46.2018043,39.1245371 L46.3654091,39.1060221 L46.4619814,39.0901161 C46.5220708,39.0810269 46.573576,39.0749675 46.616497,39.0719378 L46.6744404,39.0696655 L46.8598423,39.0594823 C47.0943649,39.047139 47.2781678,39.039733 47.411251,39.0372643 L47.5015535,39.0363386 L47.6204396,39.0376717 C47.749142,39.0403378 47.9072933,39.0470032 48.0948935,39.0576678 L48.2923099,39.0696655 L48.3683895,39.0737051 C48.4054942,39.0772959 48.4469876,39.0832805 48.4928698,39.091659 L48.5649846,39.1060221 L48.724323,39.1148639 C48.9770056,39.1284668 49.165281,39.1364017 49.2891491,39.1386689 L49.355741,39.139349 L49.5573719,39.1321972 C50.8012811,39.0619052 51.4853202,38.5156001 51.6094892,37.4932822 L51.625,37.3184883 L51.6113308,37.1602211 C51.5243999,36.4447815 51.1134944,36.0533167 50.3786141,35.9858265 L50.216181,35.9763232 L50.0681035,35.9791846 C49.6006937,35.9980698 49.3436184,36.110437 49.2968774,36.3162862 L49.2890872,36.3883648 L49.2986611,36.4439905 C49.317809,36.4994949 49.3656785,36.5546358 49.4422698,36.6094131 L49.528435,36.6640692 L49.6289103,36.7360405 C49.7834878,36.8605268 49.873658,37.0076846 49.8994209,37.1775137 L49.9071497,37.2821317 L49.8922166,37.4197348 C49.8026004,37.9990732 49.3918828,38.3170857 48.6600639,38.3737722 L48.4983308,38.3819194 L48.3394599,38.3777536 C48.2306425,38.3721991 48.1160182,38.3610901 47.9955869,38.3444267 L47.8105847,38.3152656 L47.7075743,38.3152656 L47.7075743,33.6070835 L47.71358,33.4849446 C47.7199686,33.0593825 47.5578107,32.8365028 47.2271064,32.8163057 Z M21.9340084,34.5649691 C21.8280713,34.5723888 21.7458361,34.6380327 21.6873028,34.7619008 L21.655027,34.8432085 L21.6287695,34.9081792 L21.5944327,34.9657438 L21.5520166,35.0159025 L21.4795874,35.180312 C21.3443862,35.4940772 21.2671284,35.7175189 21.2478139,35.8506372 L21.2429853,35.9096694 L21.2496339,35.9828034 C21.2673633,36.0714507 21.3205517,36.1246391 21.409199,36.1423685 L21.4823331,36.1490171 L21.8974045,36.1490171 L22.0145775,36.1701534 C22.4277785,36.2670446 22.6602122,36.5772412 22.7118788,37.100743 L22.7214878,37.2488048 L22.713388,37.4102455 C22.6679508,38.0291737 22.4644659,38.3817622 22.1029332,38.4680109 L22.0004149,38.4849299 L21.8665014,38.4470517 C21.3028391,38.2570636 20.9553641,37.7310372 20.8240763,36.8689724 L20.7976168,36.6640692 L20.8044033,36.5044636 C20.8188813,36.3255568 20.8565242,36.1189348 20.9173318,35.8845978 L20.967281,35.7036485 L21.0043647,35.6002745 C21.0373281,35.5038083 21.0579301,35.4280653 21.066171,35.3730457 L21.0702914,35.3249337 L21.0636428,35.2823494 C21.0459134,35.2307319 20.992725,35.1997615 20.9040777,35.189438 L20.8309437,35.1855667 L20.6599421,35.2250004 C19.8857386,35.4322205 19.4447884,35.9641885 19.3370914,36.8209045 L19.3191142,37.0094571 L19.3392143,37.1897441 C19.502552,38.3651579 20.2526368,39.0105797 21.5894687,39.1260095 L21.7943941,39.139349 L21.9809408,39.1286135 C23.1975855,39.0277064 23.8742226,38.3400522 24.0108521,37.0656508 L24.0272964,36.87009 L24.0058233,36.6651599 C23.8522376,35.4676447 23.2474468,34.7774303 22.1914509,34.5945169 L22.0004149,34.5675042 L21.9340084,34.5649691 Z M38.3371993,34.8327046 L38.2548533,34.8432085 L38.1072724,34.862289 C37.4866204,34.9675098 37.0608647,35.3703224 36.8300053,36.0707266 L36.7763508,36.2520275 L36.7819774,36.3251736 C36.8007328,36.437706 36.8663767,36.5033499 36.9789091,36.5221053 L37.0520552,36.5277319 L37.1079156,36.5212937 C37.1480594,36.5127095 37.1940101,36.4955411 37.2457678,36.4697885 L37.4097513,36.3796544 C37.461509,36.3539018 37.5074597,36.3367334 37.5476035,36.3281492 L37.6034639,36.321711 L37.713207,36.329117 L37.8162175,36.3513349 L37.9124952,36.3883648 L38.0198819,36.408563 C38.0641681,36.4157445 38.1038661,36.4205322 38.138976,36.4229261 L38.1881995,36.4247215 L38.280648,36.4240903 C38.5738013,36.4013674 38.7168713,36.1724553 38.7098581,35.7373541 L38.7032516,35.6006381 L38.710064,35.4739636 C38.7223198,35.0340596 38.5980316,34.8203066 38.3371993,34.8327046 Z M43.032719,32.816327 L42.833403,32.8403676 C42.1271619,32.9397567 41.6913486,33.1627905 41.5259631,33.5094692 L41.4875627,33.6070835 L41.5078012,33.6825841 C41.5349475,33.7511769 41.5828171,33.7990464 41.6514099,33.8261927 L41.7269105,33.8464312 L41.7992871,33.8427282 L41.8790696,33.8316193 L41.9662582,33.8131043 L42.0773479,33.7929062 L42.1803583,33.7807873 L42.2752895,33.7767477 L42.3939635,33.796865 C42.6956427,33.8669929 42.8790416,34.0689741 42.9441604,34.4028087 L42.9630355,34.5341773 L42.952705,34.6660542 C42.90235,35.0874094 42.6927945,35.3264205 42.3240385,35.3830875 L42.2086357,35.3946172 L41.796594,35.3946172 L41.712351,35.40034 C41.6102383,35.4156009 41.5489706,35.4613833 41.5285481,35.5376873 L41.5208896,35.6006381 L41.5274248,35.6658396 C41.5661518,35.8498299 41.7769986,35.9520467 42.1599654,35.97249 L42.3116461,35.9763232 L42.5229083,35.9656964 C43.7601241,35.8781679 44.4508998,35.3628128 44.5952356,34.4196312 L44.614232,34.2584729 L44.5973536,34.097489 C44.4819517,33.264292 43.9604069,32.837238 43.032719,32.816327 Z M49.4951081,32.816327 L49.2953439,32.8403676 C48.5875252,32.9397567 48.1508573,33.1627905 47.9853403,33.5094692 L47.946922,33.6070835 L47.9682513,33.6825841 C47.996367,33.7511769 48.0448425,33.7990464 48.1136777,33.8261927 L48.1892995,33.8464312 L48.2616761,33.8427282 L48.3414587,33.8316193 L48.4286472,33.8131043 L48.5397369,33.7929062 L48.6427473,33.7807873 L48.7376785,33.7767477 L48.8558072,33.796865 C49.1561937,33.8669929 49.3395926,34.0689741 49.4060041,34.4028087 L49.4254245,34.5341773 L49.415073,34.6660542 C49.3645777,35.0874094 49.1541806,35.3264205 48.7838817,35.3830875 L48.667995,35.3946172 L48.2559533,35.3946172 L48.172636,35.40034 C48.0716454,35.4156009 48.0110511,35.4613833 47.990853,35.5376873 L47.9832787,35.6006381 L47.9897888,35.6658396 C48.0283674,35.8498299 48.2384064,35.9520467 48.6199059,35.97249 L48.7710054,35.9763232 L48.9825555,35.9656964 C50.2214073,35.8781679 50.912183,35.3628128 51.0548828,34.4196312 L51.0735913,34.2584729 L51.0567234,34.097489 C50.9414334,33.264292 50.4208949,32.837238 49.4951081,32.816327 Z M17.8525451,32.8129881 L17.7376013,32.816327 L17.3255596,32.816327 L17.1944334,32.8283247 C17.0703362,32.8389893 16.9673257,32.8456547 16.8854022,32.8483208 L16.8105075,32.8496539 L16.740824,32.8496539 L16.6364407,32.8612521 C16.441592,32.8909812 16.3302498,32.9599073 16.3024143,33.0680303 L16.2954554,33.1253583 L16.3030297,33.171814 C16.3232278,33.2351014 16.3838222,33.303775 16.4848128,33.3778348 L16.5681301,33.4343895 L16.7108635,33.508786 C16.8921977,33.6156116 17.0376242,33.7529588 17.1471429,33.9208276 L17.2225492,34.0524521 L17.2859479,34.1891149 C17.4772088,34.5729719 17.6988049,34.7695414 17.9507363,34.7788234 L18.0466326,34.773525 L18.1604849,34.7614812 C18.4866428,34.707397 18.6742099,34.4917362 18.7231862,34.1144987 L18.7343786,33.9827685 L18.7257944,33.8148717 C18.7029032,33.5960587 18.6342296,33.3974438 18.5197736,33.2190271 L18.4253474,33.0890017 L18.3437923,33.0077557 C18.2313423,32.9088262 18.1040529,32.8474898 17.9619241,32.8237467 L17.8525451,32.8129881 Z M32,15.1875 C27.858125,15.1875 24.5,18.545625 24.5,22.6875 C24.5,26.8299375 27.858125,30.1875 32,30.1875 C36.1424375,30.1875 39.5,26.8299375 39.5,22.6875 C39.5,18.545625 36.1424375,15.1875 32,15.1875 Z M32,16.437375 C35.4520625,16.437375 38.2499375,19.2354375 38.2499375,22.6875 C38.2499375,26.1395625 35.4520625,28.9374375 32,28.9374375 C28.5479375,28.9374375 25.7500625,26.1395625 25.7500625,22.6875 C25.7500625,19.2354375 28.5479375,16.437375 32,16.437375 Z M31.2588968,18.25 C28.8027072,18.25 26.8125,20.2121901 26.8125,22.6338028 C26.8125,25.0554155 28.8027072,27.0176056 31.2588968,27.0176056 C33.4618641,27.0176056 35.2855538,25.4372447 35.6385977,23.3643636 L37.1875,23.3643636 L37.1875,21.9032421 L35.6385977,21.9032421 C35.2855538,19.8303609 33.4618641,18.25 31.2588968,18.25 Z M31.2693662,19.6382042 C32.8839611,19.6382042 34.1919014,20.9468021 34.1919014,22.5607394 C34.1919014,24.1753344 32.8839611,25.4832746 31.2693662,25.4832746 C29.6554288,25.4832746 28.346831,24.1753344 28.346831,22.5607394 C28.346831,20.9468021 29.6554288,19.6382042 31.2693662,19.6382042 Z"/>
  </g>
</svg>
