<svg xmlns="http://www.w3.org/2000/svg" width="128" height="128" viewBox="0 0 128 128">
  <g fill="none">
    <rect width="128" height="128" fill="#555" rx="64"/>
    <path fill="#BBB" d="M63.9914942,2.75 C64.8760936,2.75 65.760693,2.78402305 66.6452923,2.8180461 C67.8360992,4.82540619 69.996563,6.18632829 72.4972573,6.18632829 C74.3685252,6.18632829 76.0696778,5.43782114 77.2945077,4.21299125 C79.0296834,4.60425635 80.730836,5.04655603 82.3979656,5.57391334 C83.0103805,7.83644633 84.7625677,9.72472573 87.1782044,10.3711637 C88.9814262,10.864498 90.818671,10.575302 92.3156853,9.70771421 C93.8807457,10.5242675 95.4117831,11.4088668 96.8917859,12.3615123 C96.9087974,14.6920914 98.0996042,16.9546244 100.260068,18.1964658 C101.876163,19.1320997 103.730419,19.3192265 105.397549,18.8769268 C106.690425,20.0677336 107.949278,21.3265866 109.140085,22.6194626 C108.561693,24.864984 109.123073,27.3656784 110.892272,29.1348771 C112.219171,30.4617761 113.937335,31.1082141 115.672511,31.1252257 C116.625156,32.6052284 117.509756,34.1362658 118.326309,35.7013262 C117.169525,37.7256978 117.067456,40.2944383 118.326309,42.4549021 C119.261943,44.0709971 120.758957,45.1597348 122.443098,45.619046 C122.970455,47.2861755 123.412755,48.9873281 123.787009,50.7225038 C122.153902,52.3726219 121.388384,54.8222816 122.034822,57.2379183 C122.528156,59.0411401 123.68494,60.4871198 125.181954,61.3547077 C125.215977,62.239307 125.25,63.1068949 125.25,63.9914942 C125.25,64.8760936 125.215977,65.760693 125.181954,66.6452923 C123.174594,67.8360992 121.813672,69.996563 121.813672,72.4972573 C121.813672,74.3685252 122.562179,76.0696778 123.787009,77.2945077 C123.395744,79.0296834 122.953444,80.730836 122.426087,82.3979656 C120.163554,83.0103805 118.275274,84.7625677 117.628836,87.1782044 C117.135502,88.9814262 117.424698,90.818671 118.292286,92.3156853 C117.475733,93.8807457 116.591133,95.4117831 115.638488,96.8917859 C113.307909,96.9087974 111.045376,98.0996042 109.803534,100.260068 C108.8679,101.876163 108.680774,103.730419 109.123073,105.397549 C107.932266,106.707436 106.673413,107.949278 105.380537,109.140085 C103.135016,108.561693 100.634322,109.123073 98.8651229,110.892272 C97.5382239,112.219171 96.8917859,113.937335 96.8747743,115.672511 C95.3947716,116.625156 93.8637342,117.509756 92.2986738,118.326309 C90.2743022,117.169525 87.7055617,117.067456 85.5450979,118.326309 C83.9290029,119.261943 82.8402652,120.758957 82.380954,122.443098 C80.7138245,122.970455 79.0126719,123.412755 77.2774962,123.787009 C75.6273781,122.153902 73.1777184,121.388384 70.7620817,122.034822 C68.9588599,122.511144 67.5298917,123.667928 66.6452923,125.181954 C65.760693,125.215977 64.8931051,125.25 64.0085058,125.25 C63.1239064,125.25 62.239307,125.215977 61.3547077,125.181954 C60.1639008,123.174594 58.003437,121.813672 55.5027427,121.813672 C53.6314748,121.813672 51.9303222,122.562179 50.7054923,123.787009 C48.9703166,123.395744 47.269164,122.953444 45.6020344,122.426087 C44.9896195,120.163554 43.2374323,118.275274 40.8217956,117.628836 C39.0185738,117.135502 37.181329,117.424698 35.6843147,118.292286 C34.1192543,117.475733 32.5882169,116.591133 31.1082141,115.638488 C31.0912026,113.307909 29.9003958,111.045376 27.739932,109.803534 C26.123837,108.8679 24.2695806,108.680774 22.602451,109.123073 C21.2925635,107.932266 20.0507221,106.673413 18.8599153,105.380537 C19.4383072,103.135016 18.8769268,100.634322 17.1077281,98.8651229 C15.7808291,97.5382239 14.0626649,96.8917859 12.3274892,96.8747743 C11.3748438,95.3947716 10.4902444,93.8637342 9.67369115,92.2986738 C10.8304749,90.2743022 10.9325441,87.7055617 9.67369115,85.5450979 C8.73805721,83.9290029 7.24104291,82.8402652 5.55690182,82.380954 C5.02954451,80.7138245 4.58724483,79.0126719 4.21299125,77.2774962 C5.84609776,75.6273781 6.61161644,73.1777184 5.96517845,70.7620817 C5.47184419,68.9588599 4.31506041,67.5128802 2.8180461,66.6452923 C2.78402305,65.760693 2.75,64.8931051 2.75,64.0085058 C2.75,63.1239064 2.78402305,62.239307 2.8180461,61.3547077 C4.82540619,60.1639008 6.18632829,58.003437 6.18632829,55.5027427 C6.18632829,53.6314748 5.43782114,51.9303222 4.21299125,50.7054923 C4.60425635,48.9703166 5.04655603,47.269164 5.57391335,45.6020344 C7.83644633,44.9896195 9.72472573,43.2374323 10.3711637,40.8217956 C10.864498,39.0185738 10.575302,37.181329 9.70771421,35.6843147 C10.5242675,34.1192543 11.4088668,32.5882169 12.3615123,31.1082141 C14.6920914,31.0912026 16.9546244,29.9003958 18.1964658,27.739932 C19.1320997,26.123837 19.3192265,24.2695806 18.8769268,22.602451 C20.0677336,21.2925635 21.3265866,20.0507221 22.6194626,18.8599153 C24.864984,19.4383072 27.3656784,18.8769268 29.1348771,17.1077281 C30.4617761,15.7808291 31.1082141,14.0626649 31.1252257,12.3274892 C32.6052284,11.3748438 34.1362658,10.4902444 35.7013262,9.67369115 C37.7256978,10.8304749 40.2944383,10.9325441 42.4549021,9.67369115 C44.0709971,8.73805721 45.1597348,7.24104291 45.619046,5.55690182 C47.2861755,5.02954451 48.9873281,4.58724483 50.7225038,4.21299125 C52.3726219,5.84609776 54.8222816,6.61161644 57.2379183,5.96517845 C59.0411401,5.47184419 60.4871198,4.31506041 61.3547077,2.8180461 C62.239307,2.78402305 63.1068949,2.75 63.9914942,2.75 Z M56.6925565,84.8323396 L56.6925565,85.5639625 C56.9480438,85.5446074 57.2947767,85.5269113 57.7327551,85.5108742 L57.959348,85.5029939 L59.0432339,85.5029939 L58.7587139,88.0094799 L57.6477309,88.0094799 L57.6477309,86.8375284 L57.6526084,86.6784681 C57.6623633,86.5256402 57.6867508,86.3915093 57.7257706,86.2760755 L57.769668,86.166874 L57.7884855,86.1292391 L57.799776,86.0976257 L57.8035395,86.072034 L57.7750205,86.0521293 C57.6911086,86.008417 57.4856219,85.9838289 57.1585605,85.9783648 L57.0109479,85.977194 L57.0109479,87.8807685 L57.006714,88.0293794 C57.0010688,88.1326873 56.9897783,88.244463 56.9728426,88.3647066 L56.9432051,88.5514229 L56.9281511,88.6071226 L56.9191187,88.6477683 L56.9161079,88.67336 L56.9992811,88.6547307 C57.1217201,88.6321498 57.2903245,88.6186012 57.5050945,88.614085 L57.674828,88.6123914 L59.5513054,88.6123914 L59.5401477,88.8482023 C59.4843595,89.9909236 59.4285712,90.5886548 59.372783,90.6413957 L59.3616254,90.6446774 L59.3255705,90.6924893 C59.1979228,90.824168 58.8949274,90.8500335 58.4165844,90.7700857 L58.2506424,90.7395174 L58.3356666,90.8260624 C58.4674656,90.9790599 58.5497248,91.1758368 58.5824442,91.4163931 L58.596131,91.5659804 L58.7988176,91.5551415 C59.3198054,91.515399 59.6847137,91.3889457 59.8935423,91.1757815 L59.9645369,91.0917803 L59.9877441,91.0648949 C60.0936982,90.908804 60.166804,90.3239573 60.2070616,89.3103547 L60.2151855,89.0865915 L60.2236533,88.8899255 C60.240589,88.5131058 60.2575248,88.2353601 60.2744605,88.0566883 L60.2829283,87.9756085 L60.2016369,87.9845948 C60.0532478,87.9984199 59.8403416,88.0064845 59.5629184,88.0087887 L59.3887225,88.0094799 L59.7409854,84.866211 L59.5900543,84.8881597 C59.4183668,84.9089703 59.2124574,84.9214567 58.9723261,84.9256188 L58.785811,84.9271796 L57.9322509,84.9271796 L57.6032746,84.9212521 C57.2806492,84.9093971 56.9770765,84.8797596 56.6925565,84.8323396 Z M62.6945743,86.8375284 L62.5997343,86.8375284 L62.5997343,87.562377 L62.7284458,87.562377 L63.0521061,87.5285056 C63.1993005,87.5164624 63.3509553,87.5084336 63.5070706,87.5044193 L63.7445887,87.5014085 L64.5371803,87.5014085 L64.5371803,88.67336 L63.4532944,88.67336 L63.1992587,88.6822513 C63.0299015,88.6828158 62.8605444,88.6726544 62.6911872,88.651767 L62.4371514,88.6123914 L62.3423114,88.6123914 L62.3423114,89.310143 L62.4371514,89.310143 L62.6100312,89.2881943 C62.7904982,89.2686843 62.9937268,89.2564906 63.219717,89.2516131 L63.4532944,89.2491744 L64.5371803,89.2491744 L64.5371803,90.7395174 L62.6607029,90.7395174 L62.3651747,90.7357069 C62.1721075,90.7306262 61.9869437,90.7204647 61.8096832,90.7052226 L61.5497199,90.6785488 L61.4548799,90.6785488 L61.4548799,91.3763004 L61.5835913,91.3763004 L61.9478974,91.3424289 L62.3182251,91.3221061 L62.6945743,91.3153318 L67.2333463,91.3153318 L67.4669237,91.3177705 C67.6929139,91.322648 67.8961425,91.3348417 68.0766095,91.3543517 L68.2494893,91.3763004 L68.3782007,91.3763004 L68.3782007,90.6785488 L68.2833607,90.6785488 L68.0982872,90.7004975 C67.9069814,90.7200075 67.6969785,90.7322012 67.4682786,90.7370787 L67.2333463,90.7395174 L65.2010604,90.7395174 L65.2010604,89.215303 L66.4068834,89.215303 L66.7388234,89.2228299 C66.8833415,89.2295206 67.0238452,89.2406717 67.1603346,89.2562832 L67.3620578,89.2830458 L67.4568978,89.2830458 L67.4568978,88.6123914 L67.3959292,88.6123914 L67.2449981,88.6343401 C67.0733106,88.6551507 66.8674012,88.6676371 66.6272699,88.6717992 L66.4407548,88.67336 L65.2010604,88.67336 L65.2010604,87.5014085 L66.1901062,87.5014085 L66.3822325,87.503102 C66.6266086,87.5076182 66.8238156,87.5211668 66.9738535,87.5437477 L67.0775377,87.562377 L67.1723777,87.562377 L67.1723777,86.8375284 L67.1046349,86.8375284 L66.992671,86.8665073 C66.8325971,86.9016332 66.6293685,86.9227088 66.3829852,86.9297339 L66.1901062,86.9323684 L63.7445887,86.9323684 L63.4630325,86.9264409 C63.1878271,86.9145859 62.9316744,86.8849484 62.6945743,86.8375284 Z M70.8237182,86.8375284 L70.7288782,86.8375284 L70.7288782,87.562377 L70.8575896,87.562377 L71.18125,87.5285056 C71.3284443,87.5164624 71.4800992,87.5084336 71.6362144,87.5044193 L71.8737326,87.5014085 L72.6663241,87.5014085 L72.6663241,88.67336 L71.5824383,88.67336 L71.3284025,88.6822513 C71.1590454,88.6828158 70.9896882,88.6726544 70.820331,88.651767 L70.5662953,88.6123914 L70.4714553,88.6123914 L70.4714553,89.310143 L70.5662953,89.310143 L70.7391751,89.2881943 C70.9196421,89.2686843 71.1228707,89.2564906 71.3488609,89.2516131 L71.5824383,89.2491744 L72.6663241,89.2491744 L72.6663241,90.7395174 L70.7898467,90.7395174 L70.4943185,90.7357069 C70.3012513,90.7306262 70.1160875,90.7204647 69.938827,90.7052226 L69.6788638,90.6785488 L69.5840237,90.6785488 L69.5840237,91.3763004 L69.7127352,91.3763004 L70.0770413,91.3424289 L70.4473689,91.3221061 L70.8237182,91.3153318 L75.3624902,91.3153318 L75.5960676,91.3177705 C75.8220578,91.322648 76.0252864,91.3348417 76.2057533,91.3543517 L76.3786331,91.3763004 L76.5073446,91.3763004 L76.5073446,90.6785488 L76.4125046,90.6785488 L76.2274311,90.7004975 C76.0361252,90.7200075 75.8261223,90.7322012 75.5974224,90.7370787 L75.3624902,90.7395174 L73.3302042,90.7395174 L73.3302042,89.215303 L74.5360272,89.215303 L74.8679672,89.2228299 C75.0124854,89.2295206 75.1529891,89.2406717 75.2894784,89.2562832 L75.4912016,89.2830458 L75.5860416,89.2830458 L75.5860416,88.6123914 L75.525073,88.6123914 L75.3741419,88.6343401 C75.2024544,88.6551507 74.996545,88.6676371 74.7564137,88.6717992 L74.5698986,88.67336 L73.3302042,88.67336 L73.3302042,87.5014085 L74.31925,87.5014085 L74.5113763,87.503102 C74.7557524,87.5076182 74.9529594,87.5211668 75.1029974,87.5437477 L75.2066816,87.562377 L75.3015216,87.562377 L75.3015216,86.8375284 L75.2337787,86.8375284 L75.1218148,86.8665073 C74.9617409,86.9016332 74.7585123,86.9227088 74.512129,86.9297339 L74.31925,86.9323684 L71.8737326,86.9323684 L71.5921763,86.9264409 C71.3169709,86.9145859 71.0608182,86.8849484 70.8237182,86.8375284 Z M56.3131964,84.9949224 L56.2144854,85.011789 C56.0370636,85.0389783 55.7951248,85.0615593 55.488669,85.0795319 L55.2970534,85.0897624 L54.2809105,85.0897624 L54.0802222,85.0838349 C53.9413493,85.0759316 53.792315,85.0601249 53.6331193,85.0364149 L53.3867046,84.9949224 L53.3867046,85.7265454 C53.4629781,85.6864015 53.698043,85.6640993 54.0918995,85.6596388 L54.247039,85.6588025 L54.5993019,85.6588025 L54.5087673,85.9322729 C54.1116235,87.0889999 53.6517248,87.8776774 53.129071,88.2983054 L53.0073446,88.38884 L53.1149203,88.4953318 C53.2162636,88.6053462 53.2989099,88.7259285 53.3628591,88.8570787 L53.4205761,88.9917515 L53.5278003,88.8469511 C53.7331459,88.5692054 53.8838738,88.3625896 53.9799839,88.2271039 L54.0234876,88.1652885 L54.0234876,89.7911173 L54.019694,90.0612759 C54.0121068,90.3224923 53.9931388,90.5568827 53.96279,90.7644468 L53.9286476,90.9630689 L54.6941419,90.9630689 L54.656507,90.5904831 C54.6431257,90.4279002 54.6342048,90.2693318 54.6297444,90.1147777 L54.6263991,89.8859573 L55.547702,89.8859573 L55.5472786,90.0198553 C55.5455851,90.2709273 55.5388108,90.4216552 55.5269558,90.472039 L55.5206049,90.4888688 L56.2454536,90.4888688 L56.203961,90.2449945 C56.180251,90.0801535 56.1644444,89.9107964 56.156541,89.736923 L56.1506135,89.4727258 L56.1506135,87.7859285 L56.156541,87.6208053 C56.1644444,87.5067714 56.180251,87.3848343 56.203961,87.2549938 L56.2454536,87.0543055 L56.0951491,87.083943 C55.9895831,87.1008788 55.8732912,87.1121692 55.7462733,87.1178145 L55.547702,87.1220484 L54.6941419,87.1220484 L55.2293106,85.6588025 L55.4126345,85.6596388 C55.8220467,85.6635417 56.1030541,85.6811047 56.2556568,85.7123277 L56.3131964,85.7265454 L56.3131964,84.9949224 Z M74.5698986,89.4388544 L74.0008586,89.7911173 C74.2357005,90.0078945 74.4242966,90.2261168 74.566647,90.4457844 L74.6647386,90.610806 L75.335393,90.1975745 L75.1993428,90.027841 C74.975415,89.7593785 74.7656002,89.5630497 74.5698986,89.4388544 Z M66.4407548,89.4388544 L65.8717147,89.7911173 C66.1065567,90.0078945 66.2951528,90.2261168 66.4375031,90.4457844 L66.5355948,90.610806 L67.2062492,90.1975745 L67.0701989,90.027841 C66.8462711,89.7593785 66.6364564,89.5630497 66.4407548,89.4388544 Z M59.0771053,89.3778858 L58.9028707,89.4120282 C58.719694,89.442377 58.5096911,89.461345 58.272862,89.4689322 L58.0270909,89.4727258 L57.4241794,89.4727258 L57.3101456,89.4700914 C57.1475627,89.4630662 56.9428287,89.4419906 56.6959436,89.4068647 L56.5028764,89.3778858 L56.5028764,90.1027345 L56.6635625,90.0807858 C56.8331907,90.0612759 57.029645,90.0490821 57.2529254,90.0442047 L57.485148,90.0417659 L57.9932195,90.0417659 L58.3695687,90.0485402 C58.5334897,90.0545618 58.6929503,90.0645978 58.8479504,90.0786481 L59.0771053,90.1027345 L59.0771053,89.3778858 Z M55.547702,87.6301199 L55.547702,89.3440144 L54.6263991,89.3440144 L54.6263991,87.6301199 L55.547702,87.6301199 Z M73.3031071,84.5478195 L72.4766441,84.676531 C72.5714841,84.8831467 72.6485416,85.0897624 72.7078166,85.2963782 L72.7611641,85.5029939 L70.5391981,85.5029939 L70.372593,85.5019354 C70.0550484,85.4977015 69.8314969,85.4807658 69.7019387,85.4511283 L69.6449923,85.4352511 L69.6693798,85.569111 C69.6910575,85.7094742 69.704606,85.8693473 69.7100255,86.0487305 L69.7127352,86.2346169 L69.7085013,86.4323414 C69.702856,86.5604883 69.6915655,86.6812964 69.6746298,86.7947657 L69.6449923,86.9594655 L69.6449923,87.0272084 L70.4104867,87.0272084 L70.4104867,86.898497 L70.3916692,86.6230093 L70.3803788,86.3475216 L70.3766153,86.072034 L75.6808816,86.072034 L75.677088,86.3042565 C75.6695008,86.527537 75.6505328,86.7239913 75.620184,86.8936195 L75.5860416,87.0543055 L76.4125046,87.0543055 L76.4125046,86.993337 L76.3786331,86.7554842 L76.3583103,86.5116099 L76.351536,86.261714 L76.3527803,86.0889006 C76.3569278,85.8160858 76.3714441,85.6193089 76.3963292,85.4985699 L76.4125046,85.4352511 L76.3491857,85.4532237 C76.2284467,85.4808738 76.0316699,85.4970031 75.758855,85.5016114 L75.5860416,85.5029939 L73.5198842,85.5029939 L73.4834724,85.2400669 C73.4411331,84.9851844 73.3810113,84.7544353 73.3031071,84.5478195 Z M65.1739632,84.5478195 L64.3475003,84.676531 C64.4423403,84.8831467 64.5193978,85.0897624 64.5786728,85.2963782 L64.6320203,85.5029939 L62.4100543,85.5029939 L62.2434492,85.5019354 C61.9259045,85.4977015 61.7023531,85.4807658 61.5727948,85.4511283 L61.5158485,85.4352511 L61.5402359,85.569111 C61.5619136,85.7094742 61.5754622,85.8693473 61.5808816,86.0487305 L61.5835913,86.2346169 L61.5793574,86.4323414 C61.5737122,86.5604883 61.5624217,86.6812964 61.545486,86.7947657 L61.5158485,86.9594655 L61.5158485,87.0272084 L62.2813429,87.0272084 L62.2813429,86.898497 L62.2625254,86.6230093 L62.2512349,86.3475216 L62.2474714,86.072034 L67.5517378,86.072034 L67.5479442,86.3042565 C67.540357,86.527537 67.521389,86.7239913 67.4910402,86.8936195 L67.4568978,87.0543055 L68.2833607,87.0543055 L68.2833607,86.993337 L68.2494893,86.7554842 L68.2291664,86.5116099 L68.2223921,86.261714 L68.2236364,86.0889006 C68.2277839,85.8160858 68.2423003,85.6193089 68.2671854,85.4985699 L68.2833607,85.4352511 L68.2200419,85.4532237 C68.0993029,85.4808738 67.902526,85.4970031 67.6297112,85.5016114 L67.4568978,85.5029939 L65.3907404,85.5029939 L65.3543286,85.2400669 C65.3119893,84.9851844 65.2518675,84.7544353 65.1739632,84.5478195 Z M53.4171941,69.8257841 L53.162453,69.8459711 C50.5693406,70.092403 49.1918287,71.5116577 49.0299173,74.1037351 L49.0180432,74.3582426 L49.0366157,74.5952949 C49.231002,76.6186005 50.2944331,77.8320748 52.226909,78.2357178 L52.4537437,78.278698 L52.5666696,78.2829046 C52.9070998,78.2717873 53.2624031,78.0470373 53.6325796,77.6086545 L53.7565226,77.4546147 L53.8889027,77.2822299 C54.3974007,76.6095088 54.6536283,76.138604 54.6575855,75.8695155 L54.6533192,75.8064479 L54.646881,75.7098757 C54.6211284,75.5296074 54.518118,75.426597 54.3378498,75.4008444 L54.2412775,75.3944062 L53.8958896,75.3944062 L53.7637182,75.4235673 C53.6783811,75.4402307 53.5985985,75.4513397 53.5243704,75.4568942 L53.4171941,75.46106 L53.2596488,75.4387303 C52.4933083,75.2974133 52.0477615,74.7110737 51.9230084,73.6797115 L51.902335,73.4675054 L51.9143532,73.2553916 C52.006865,72.0843968 52.5168843,71.3678429 53.444411,71.1057299 L53.623215,71.0619091 L53.7836045,71.0402683 C54.3984519,70.9467798 54.6927674,70.7701906 54.666551,70.5105004 L54.6533192,70.4438466 L54.6470124,70.3587053 C54.5923538,70.0034245 54.1824144,69.8257841 53.4171941,69.8257841 Z M94.3859982,65.6299048 L94.2456773,65.632654 L94.1717438,65.637409 C93.9104054,65.6687918 93.4772251,65.8555197 92.872203,66.1975925 L92.6641644,66.3173704 L92.5648829,66.3771042 C92.4716608,66.4331809 92.396617,66.478286 92.3397515,66.5124197 L92.29,66.541 L92.31,66.528 L92.2726316,66.5514295 L92.2386055,66.5721535 L92.237,66.573 L92.1698875,66.616385 C91.933281,66.7618939 91.7543833,66.8599991 91.6331946,66.9107005 L91.5674064,66.9354329 L91.5196042,66.9758291 L91.4731485,67.0000669 L91.4280394,67.0081461 L91.3629004,67.0373072 C91.3225042,67.0539706 91.2881674,67.0650796 91.25989,67.0706341 L91.2220185,67.0747999 L91.0770409,67.1655418 C90.7586587,67.375353 90.5795686,67.5717236 90.5397709,67.7546537 L90.5312428,67.8322295 L90.5261528,67.9139713 C90.5345553,68.130172 90.7187621,68.3321532 91.0787734,68.5199149 L91.2220185,68.589659 L91.3724224,68.6520156 C91.9489345,68.9154156 92.224206,69.3465012 92.198237,69.9452725 L92.1854689,70.0984587 L92.1854689,74.085568 L92.1895164,74.3119921 C92.1884119,75.3436742 91.9074055,76.0258658 91.3464973,76.3585667 L91.2220185,76.4245105 L91.0789958,76.4769421 C90.6754043,76.6407528 90.4511868,76.8797422 90.4063433,77.1939105 L90.3979352,77.3152476 L90.4037253,77.4394257 C90.4539064,77.9589752 90.8302647,78.2373053 91.5328003,78.274416 L91.700714,78.278698 L91.9718738,78.2745322 C92.1496173,78.2689777 92.3213013,78.2578687 92.4869259,78.2412053 L92.7308182,78.2120442 L92.8873941,78.1858675 C93.0357291,78.1625992 93.1593416,78.1480566 93.2582316,78.1422395 L93.3488807,78.139331 L93.8348326,78.1129986 C94.2869713,78.0899578 94.6376705,78.0767916 94.8869303,78.0735001 L95.0031069,78.0726772 L95.1471132,78.0737186 C95.4504637,78.0778845 95.845842,78.094548 96.3332479,78.123709 L96.5846198,78.139331 L96.695962,78.1438756 C96.7757446,78.149935 96.8666361,78.1620539 96.9686366,78.1802322 L97.1299691,78.2120442 L97.3562891,78.2247084 C97.9396108,78.2567023 98.3613476,78.2744766 98.6214994,78.2780315 L98.7114821,78.278698 L98.9782334,78.271106 C101.605449,78.1609236 103.023736,77.0228857 103.233094,74.8569922 L103.25,74.6369767 L103.234788,74.4321096 C103.087022,72.8926055 102.222947,72.0694108 100.642561,71.9625256 L100.432362,71.9526463 L100.220638,71.9554978 C99.1940983,71.9840128 98.6487491,72.2263903 98.5845903,72.6826302 L98.5781745,72.7767297 L98.5856541,72.8463185 C98.6155725,72.9853068 98.7352464,73.123159 98.9446757,73.2598751 L99.0568699,73.3281384 L99.2007816,73.4277555 C99.5643477,73.700511 99.766329,74.0301443 99.8067252,74.4166556 L99.8142995,74.5642634 L99.7982778,74.7384196 C99.648461,75.9892585 98.7875161,76.661351 97.2154429,76.7546971 L96.9966615,76.7638389 L96.7438618,76.7585066 C96.4854875,76.747842 96.210389,76.7211805 95.9185666,76.678522 L95.6211694,76.6305313 L95.4151486,76.6305313 L95.4151486,67.214167 L95.4255282,67.0356941 C95.4572467,66.1122659 95.1107367,65.6436695 94.3859982,65.6299048 Z M81.461856,65.6299048 L81.3208993,65.632654 L81.2469657,65.637409 C80.9856273,65.6687918 80.552447,65.8555197 79.9474249,66.1975925 L79.7393863,66.3173704 L79.6401407,66.3771042 C79.2985892,66.5827187 79.2028812,66.6408271 79.3530166,66.5514295 L79.367,66.543 L79.2495613,66.616385 C79.0104815,66.7618939 78.8301411,66.8599991 78.7085402,66.9107005 L78.6426283,66.9354329 L78.5975192,66.9758291 L78.5510635,67.0000669 L78.5032613,67.0081461 L78.4211223,67.045176 C78.3876083,67.0583422 78.3580842,67.0671196 78.3325498,67.0715084 L78.2972404,67.0747999 L78.1535346,67.1655418 C77.8379451,67.375353 77.6604261,67.5717236 77.6209774,67.7546537 L77.6125241,67.8322295 L77.6062829,67.9139713 C77.6117768,68.130172 77.7943678,68.3321532 78.154056,68.5199149 L78.2972404,68.589659 L78.4484481,68.6520156 C79.0279281,68.9154156 79.3031997,69.3465012 79.2742628,69.9452725 L79.2606909,70.0984587 L79.2606909,74.085568 L79.2647384,74.3119921 C79.2636338,75.3436742 78.9826274,76.0258658 78.4217193,76.3585667 L78.2972404,76.4245105 L78.1542177,76.4769421 C77.7506262,76.6407528 77.5264087,76.8797422 77.4815652,77.1939105 L77.4731571,77.3152476 L77.4789741,77.4394257 C77.5293887,77.9589752 77.9074975,78.2373053 78.6133007,78.274416 L78.7819954,78.278698 L79.1388289,78.271292 C79.2944292,78.264709 79.4460398,78.2537371 79.5936606,78.2383766 L79.8120996,78.2120442 L79.9686754,78.1858675 C80.1170104,78.1625992 80.2406229,78.1480566 80.3395129,78.1422395 L80.4301621,78.139331 L80.6815165,78.1253419 C81.2481112,78.0946208 81.6754137,78.0773402 81.963424,78.0735001 L82.0783288,78.0726772 L82.2236606,78.0737186 C82.5292835,78.0778845 82.9246617,78.094548 83.4097953,78.123709 L83.6598418,78.139331 L83.7715626,78.1438756 C83.8518502,78.149935 83.9437516,78.1620539 84.047267,78.1802322 L84.2112505,78.2120442 L84.4375704,78.2247084 C85.0208922,78.2567023 85.442629,78.2744766 85.7027808,78.2780315 L85.7927634,78.278698 L86.0591419,78.271106 C88.6826886,78.1609236 90.0990819,77.0228857 90.3083218,74.8569922 L90.3252219,74.6369767 L90.3104757,74.4321096 C90.1661286,72.8926055 89.3020529,72.0694108 87.7182487,71.9625256 L87.5075839,71.9526463 L87.2958601,71.9554978 C86.2693203,71.9840128 85.723971,72.2263903 85.6598122,72.6826302 L85.6533964,72.7767297 L85.660876,72.8463185 C85.6907945,72.9853068 85.8104683,73.123159 86.0198976,73.2598751 L86.1320919,73.3281384 L86.2760035,73.4277555 C86.6395697,73.700511 86.8415509,74.0301443 86.8819471,74.4166556 L86.8895214,74.5642634 L86.8734997,74.7384196 C86.7236829,75.9892585 85.862738,76.661351 84.2906649,76.7546971 L84.0718834,76.7638389 L83.8190838,76.7585066 C83.5607094,76.747842 83.285611,76.7211805 82.9937885,76.678522 L82.6963914,76.6305313 L82.4903705,76.6305313 L82.4903705,67.214167 L82.501386,67.0356941 C82.5341144,66.1699802 82.2316101,65.7040207 81.5938731,65.6378158 L81.461856,65.6299048 Z M56.9195484,65.632654 L56.8133189,65.6390922 C56.5944218,65.6648448 56.3368957,65.7678552 56.0407408,65.9481234 L55.8894442,66.0446957 L55.7032983,66.1484333 C55.5224848,66.2468385 55.3576681,66.3292468 55.2088483,66.3956583 L55.0653609,66.4567374 L54.8969893,66.5376107 C54.1981467,66.8793753 53.8411224,67.1356854 53.8259162,67.306541 L53.8292358,67.3474746 L53.8207825,67.4110612 C53.819037,67.5632703 53.9431432,67.7423603 54.1931012,67.9483313 L54.3079313,68.0382503 L54.3557335,68.0456563 L54.4021892,68.0678742 L54.4472983,68.1049041 L54.5509271,68.159841 C54.94714,68.4019711 55.1237293,68.912695 55.0806949,69.6920128 L55.0653609,69.8924379 L55.0653609,74.7702843 L55.0664023,75.07212 C55.0705682,75.6583704 55.0872316,76.1400957 55.1163927,76.5172956 L55.1320147,76.6971851 L55.1789516,76.8886964 C55.4155537,77.7535863 55.8980363,78.2148609 56.6263995,78.2725202 L56.7862408,78.278698 L56.9535358,78.2717999 C57.7781643,78.2028188 58.4250983,77.6164792 58.8943377,76.5127811 L58.9858163,76.2851434 L58.978242,76.1863935 C58.9479448,75.9974149 58.8267561,75.8595627 58.6146758,75.772837 L58.5010614,75.7337347 L58.4028059,75.6718779 C58.0942544,75.4502541 57.9410478,75.0554136 57.9431863,74.4873566 L57.9496526,74.2915888 L57.9496526,67.2808208 L57.9460883,67.0926218 C57.9080683,66.1193099 57.5658883,65.632654 56.9195484,65.632654 Z M43.8965476,69.1286497 C43.661252,69.1335371 43.482162,69.2764949 43.3592776,69.5575231 L43.310054,69.6864171 L43.2721826,69.7852616 C43.2439052,69.8483807 43.2095684,69.9059454 43.1691721,69.9579555 L43.1040332,70.0318049 L43.0126038,70.2377182 C42.6907725,70.9718303 42.5164471,71.4760065 42.4896278,71.7502468 L42.4859707,71.8193387 L42.4918805,71.9198057 C42.5194597,72.140439 42.6435659,72.2645452 42.8641992,72.2921244 L42.9646662,72.2980342 L43.794809,72.2980342 L43.9570877,72.3246722 C44.8497887,72.5030608 45.3410403,73.1551597 45.4308423,74.2809691 L45.4429757,74.4976096 L45.4330382,74.7259898 C45.3537808,76.0631863 44.921137,76.8048613 44.1351069,76.9510149 L44.0008298,76.9698597 L43.831639,76.9253082 C42.6128927,76.564421 41.8778494,75.4516728 41.626509,73.5870636 L41.5952335,73.3281384 L41.6005355,73.1324375 C41.6217435,72.7283489 41.7065756,72.2481385 41.8550318,71.6918065 L41.9345619,71.407297 L41.9892205,71.2568004 C42.0733107,71.0177206 42.1223633,70.8373802 42.1363783,70.7157793 L42.1405828,70.6498675 L42.1331032,70.5845392 C42.1031847,70.462593 41.9835108,70.3929095 41.7740816,70.3754886 L41.6618873,70.3711334 L41.4490093,70.4173142 C39.7797946,70.8161847 38.8497677,71.9353775 38.6589286,73.7748924 L38.6382285,74.0189142 L38.6630727,74.2610635 C38.960217,76.7267626 40.5103922,78.0606344 43.3135984,78.2626786 L43.5887881,78.278698 L43.8393172,78.2663399 C46.3909168,78.0982188 47.7893,76.6770667 48.034467,74.0028836 L48.0545928,73.7401801 L48.0288103,73.4735901 C47.7457507,70.9345874 46.4816741,69.4985661 44.2365803,69.1655262 L44.0008298,69.1350083 L43.8965476,69.1286497 Z M71.8378811,69.6864171 L71.718671,69.6948261 C71.5175142,69.7228561 71.3039912,69.8209613 71.078102,69.9891416 L70.9410845,70.0984587 L70.7791764,70.2281307 C70.6201768,70.3493194 70.4699027,70.4450585 70.3283543,70.515348 L70.1897144,70.5771542 L70.1580707,70.6032435 C70.1060044,70.6404978 70.0144396,70.6876267 69.8833762,70.7446303 L69.7776727,70.7892345 L69.6337611,70.8578273 C69.2701949,71.0426805 69.0682137,71.2430459 69.0278174,71.4589234 L69.0202431,71.5406046 L69.0286522,71.6392869 C69.0566822,71.8037573 69.1547874,71.9682277 69.3229677,72.1326981 L69.4322848,72.2313804 L69.5759907,72.3560851 C69.8915801,72.6552666 70.0690992,73.0118757 70.1085479,73.4259123 L70.1170012,73.6068725 L70.1170012,75.8731017 L70.1327882,76.0868221 C70.2585028,77.4750102 70.797789,78.2038089 71.7506468,78.2732183 L71.9045349,78.278698 L72.0624543,78.2651204 C72.8923228,78.1597909 73.5242996,77.5278141 73.9583847,76.36919 L74.0374566,76.1457764 L74.0290476,76.051546 C74.0010175,75.8990295 73.9029124,75.7691845 73.7347321,75.6620107 L73.6254149,75.6004271 L73.507983,75.5131712 C73.211313,75.267562 73.0464963,74.9185385 73.013533,74.4661006 L73.0073524,74.2915888 L73.0073524,71.5406046 L73.0037429,71.3403066 C72.9628355,70.2377136 72.5742149,69.6864171 71.8378811,69.6864171 Z M31.0093979,65.632654 L30.713107,65.6709348 C27.1055629,66.1817532 25.1263508,68.135742 24.7754707,71.5329014 L24.75,71.8193387 L24.7812549,72.0974969 C25.2630803,75.9489448 27.6036753,78.0041955 31.8030401,78.263249 L32.1061559,78.278698 L32.4066622,78.2748413 C34.9784293,78.2079917 36.7020504,77.2720973 37.5775257,75.4671581 L37.6747781,75.2550392 L37.6688683,75.1393114 C37.6412891,74.8851642 37.5171829,74.7422064 37.2965495,74.710438 L37.1960826,74.7036305 L37.1210971,74.7100686 C36.960522,74.7358212 36.7363228,74.8388317 36.4484996,75.0190999 L36.299286,75.1156722 L36.0473144,75.2918166 C35.205726,75.8534366 34.3473058,76.1597748 33.4720539,76.2108312 L33.2089734,76.2184896 L32.9460806,76.1935174 C30.2653699,75.8934352 28.7794207,74.2967957 28.4882331,71.4035987 L28.4644346,71.1285629 L28.474526,70.8692786 C28.5750057,69.0838439 29.304055,67.8314362 30.6616738,67.1120555 L30.8700309,67.0081461 L31.0314844,66.9443248 C31.5967928,66.7087358 31.8685352,66.4557932 31.8467116,66.1854969 L31.8334813,66.1113495 L31.8266707,66.0282701 C31.7812666,65.7645261 31.5088424,65.632654 31.0093979,65.632654 Z M64.8937669,69.6864171 L64.6580359,69.6968795 C63.5126137,69.7622963 62.8656798,70.0242778 62.7172341,70.4828241 L62.6941914,70.5771542 L62.7027195,70.6513636 C62.7425173,70.8185841 62.9216073,70.9442613 63.2399896,71.0283952 L63.3849672,71.0619091 L63.5800541,71.1291016 C64.3990565,71.4348562 64.8751936,71.9302488 65.0084653,72.6152794 L65.0331339,72.7767297 L62.8335585,74.4976096 L62.7608452,74.4309558 L62.633029,74.1911347 C62.3944387,73.7135754 62.2581014,73.2485136 62.224017,72.7959494 L62.2154959,72.5707088 L62.2229019,72.3512226 C62.229485,72.2566654 62.2404568,72.1660981 62.2558174,72.0795204 L62.2821497,71.9526463 L62.3025162,71.8469428 C62.3272028,71.7158794 62.3420147,71.6243146 62.3469521,71.5722483 L62.3488036,71.5406046 L62.3440166,71.4238999 C62.3184862,71.1311079 62.190834,70.9856814 61.9610602,70.9876204 L61.8701081,70.9952553 L61.681902,71.0616971 C60.5795693,71.4881602 59.9615068,72.415254 59.8277144,73.8429784 L59.8098997,74.085568 L59.8349422,74.3310698 C60.1237122,76.7491637 61.5628284,78.0595168 64.1522907,78.2621293 L64.4150714,78.278698 L64.6657027,78.274833 C66.7220876,78.2104151 67.973249,77.3407737 68.4191869,75.6659089 L68.4688344,75.46106 L68.4640475,75.3436282 C68.438517,75.0469582 68.3108649,74.8821415 68.0810911,74.8491781 L67.9901389,74.8429975 L67.9284316,74.8514065 C67.8208457,74.8794366 67.6895579,74.9775417 67.5345682,75.145722 L67.4387302,75.2550392 L67.2989845,75.4195697 C66.8251702,75.9441598 66.271405,76.2302999 65.637689,76.2779899 L65.4451756,76.2851434 L65.2475679,76.2783328 C64.6706695,76.2379737 64.1702688,76.0182405 63.7463658,75.6191334 L63.590988,75.46106 L67.6447511,72.2980342 L67.7363846,72.2008359 C67.8717202,72.0476929 67.9529216,71.9059466 67.9799888,71.775597 L67.9901389,71.6799717 L67.9236821,71.49884 C67.4733347,70.3788238 66.4633629,69.7746828 64.8937669,69.6864171 Z M76.6205719,69.6694731 L76.5097067,69.6864171 L76.3069409,69.7101165 C74.9768696,69.9012474 74.0808074,70.7550771 73.6187545,72.2716055 L73.5527017,72.504055 L73.5582157,72.6088227 C73.5876242,72.8734989 73.7346665,73.0205412 73.9993427,73.0499497 L74.1041104,73.0554638 L74.1920934,73.0472229 C74.2856511,73.0307413 74.3959328,72.9895371 74.5229386,72.9236104 L74.7880996,72.7752754 C74.9151054,72.7093487 75.0253871,72.6681446 75.1189448,72.6516629 L75.2069278,72.6434221 L75.3728049,72.6517538 C75.4808649,72.6628628 75.5838753,72.6850807 75.6818362,72.7184076 L75.8249904,72.7767297 L75.9889739,72.8085417 C76.0924892,72.82672 76.1843907,72.8388389 76.2646782,72.8448983 L76.3763991,72.8494429 L76.5016648,72.8513505 C77.1484037,72.8321997 77.4536198,72.343854 77.417313,71.3863134 L77.4065033,71.2012762 L77.4177245,71.0160145 C77.4584199,70.0596709 77.1927024,69.6108237 76.6205719,69.6694731 Z M98.9902161,65.632654 L98.7274638,65.6625119 C97.1897948,65.8566007 96.2618625,66.3287294 95.9436668,67.078898 L95.8938441,67.214167 L95.9173244,67.3117807 C95.974889,67.4962148 96.0960778,67.6158887 96.2808906,67.6708023 L96.378599,67.6928624 L96.4857753,67.6886966 C96.5600034,67.6831421 96.639786,67.6720331 96.725123,67.6553697 L96.8572945,67.6262086 L97.0254438,67.5943966 C97.1345137,67.5762183 97.2375241,67.5640994 97.3344751,67.55804 L97.475357,67.5534954 L97.6352992,67.5775716 C98.3107052,67.7063656 98.708692,68.147831 98.8292594,68.901968 L98.8508491,69.0683545 L98.838227,69.2568051 C98.7512143,70.171801 98.3056675,70.6779421 97.5015866,70.7752286 L97.33599,70.7892345 L96.5119066,70.7892345 L96.3974506,70.7943214 C96.1460962,70.8180605 96.0047093,70.9248861 95.97329,71.1147983 L95.9665573,71.2012762 L95.9727114,71.2922624 C96.0301498,71.7031679 96.4896571,71.9223176 97.3512332,71.9497113 L97.5420108,71.9526463 L97.8173022,71.9407481 C100.437614,71.7938546 101.873636,70.7225071 102.125366,68.7267057 L102.147183,68.5169458 L102.128156,68.3120055 C101.93063,66.5685613 100.88465,65.6754441 98.9902161,65.632654 Z M86.0654381,65.632654 L85.8032765,65.6625119 C84.2690508,65.8566007 83.3429357,66.3287294 83.0249313,67.078898 L82.9751254,67.214167 L82.9971856,67.3117807 C83.0520992,67.4962148 83.1717731,67.6158887 83.3562072,67.6708023 L83.4538209,67.6928624 L83.5609972,67.6886966 C83.6352253,67.6831421 83.7150079,67.6720331 83.8003449,67.6553697 L83.9325164,67.6262086 L84.1006658,67.5943966 C84.2097356,67.5762183 84.312746,67.5640994 84.409697,67.55804 L84.5505789,67.5534954 L84.7112752,67.5775716 C85.389731,67.7063656 85.7877021,68.147831 85.9051885,68.901968 L85.926071,69.0683545 L85.9134699,69.2568051 C85.8266669,70.171801 85.3829023,70.6779421 84.5821761,70.7752286 L84.4172713,70.7892345 L83.593188,70.7892345 L83.4774602,70.7943214 C83.223313,70.8180605 83.0803552,70.9248861 83.0485868,71.1147983 L83.0417792,71.2012762 L83.047957,71.2922624 C83.1056163,71.7031679 83.566891,71.9223176 84.4317808,71.9497113 L84.6232922,71.9526463 L84.8982052,71.9407481 C87.5149822,71.7938546 88.9510035,70.7225071 89.2062691,68.7267057 L89.2284639,68.5169458 L89.2094295,68.3120055 C89.0117594,66.5685613 87.9637623,65.6754441 86.0654381,65.632654 Z M35.6549659,65.6250236 L35.4752026,65.632654 L34.6511193,65.632654 L34.4609271,65.6503377 C34.1680956,65.6764551 33.930348,65.6921255 33.7476845,65.697349 L33.6210151,65.6993078 L33.481648,65.6993078 L33.3393775,65.7133203 C32.8902975,65.7691428 32.6433035,65.9198221 32.5983955,66.165358 L32.5909108,66.2507165 L32.5994319,66.3200214 C32.6335163,66.4609033 32.7698536,66.6154189 33.0084439,66.7835682 L33.1362601,66.8687791 L33.3295636,66.9654308 C33.766641,67.2028211 34.1059695,67.523298 34.347549,67.9268614 L34.4450984,68.1049041 L34.5317768,68.2958711 C34.9413568,69.1556798 35.4220721,69.5763057 35.9739227,69.5577487 L36.0932651,69.54705 L36.2429479,69.5341973 C36.9698706,69.4448783 37.3744271,68.9797274 37.4566174,68.1387447 L37.4687572,67.9655371 L37.4611268,67.7399914 C37.4255183,67.2215729 37.2652799,66.7581383 36.9804115,66.3496873 L36.8506947,66.1780033 L36.7247931,66.0491842 C36.4662571,65.8086021 36.1673249,65.6703572 35.8279965,65.6344494 L35.6549659,65.6250236 Z M64,30.375 C55.71625,30.375 49,37.09125 49,45.375 C49,53.659875 55.71625,60.375 64,60.375 C72.284875,60.375 79,53.659875 79,45.375 C79,37.09125 72.284875,30.375 64,30.375 Z M64,32.87475 C70.904125,32.87475 76.499875,38.470875 76.499875,45.375 C76.499875,52.279125 70.904125,57.874875 64,57.874875 C57.095875,57.874875 51.500125,52.279125 51.500125,45.375 C51.500125,38.470875 57.095875,32.87475 64,32.87475 Z M62.5177936,36.5 C57.6054144,36.5 53.625,40.4243803 53.625,45.2676056 C53.625,50.110831 57.6054144,54.0352113 62.5177936,54.0352113 C66.9237282,54.0352113 70.5711075,50.8744894 71.2771953,46.7287271 L74.375,46.7287271 L74.375,43.8064842 L71.2771953,43.8064842 C70.5711075,39.6607218 66.9237282,36.5 62.5177936,36.5 Z M62.5387324,39.2764085 C65.7679223,39.2764085 68.3838028,41.8936042 68.3838028,45.1214789 C68.3838028,48.3506688 65.7679223,50.9665493 62.5387324,50.9665493 C59.3108577,50.9665493 56.693662,48.3506688 56.693662,45.1214789 C56.693662,41.8936042 59.3108577,39.2764085 62.5387324,39.2764085 Z"/>
  </g>
</svg>
