<svg xmlns="http://www.w3.org/2000/svg" width="1024" height="1024" viewBox="0 0 1024 1024">
  <g fill="none">
    <rect width="1024" height="1024" fill="#555" rx="512"/>
    <path fill="#BBB" d="M511.931954,22 C519.008749,22 526.085544,22.2721844 533.162339,22.5443688 C542.688793,38.6032495 559.972504,49.4906263 579.978059,49.4906263 C594.948202,49.4906263 608.557423,43.5025691 618.356062,33.70393 C632.237467,36.8340508 645.846688,40.3724483 659.183724,44.5913068 C664.083044,62.6915706 678.100542,77.7978059 697.425635,82.9693098 C711.85141,86.9159839 726.549368,84.6024163 738.525483,77.6617136 C751.045966,84.1941397 763.294265,91.2709346 775.134287,98.8920983 C775.270379,117.536731 784.796834,135.636995 802.080544,145.571726 C815.009304,153.056798 829.843355,154.553812 843.180392,151.015415 C853.5234,160.541869 863.594223,170.612693 873.120678,180.955701 C868.493543,198.919872 872.984585,218.925427 887.138175,233.079017 C897.753368,243.694209 911.498681,248.865713 925.380086,249.001805 C933.00125,260.841828 940.078045,273.090126 946.610471,285.61061 C937.356201,301.805583 936.539647,322.355506 946.610471,339.639217 C954.095542,352.567977 966.071657,361.277878 979.544785,364.952368 C983.763644,378.289404 987.302041,391.898625 990.29607,405.780031 C977.231218,418.980975 971.107068,438.578253 976.278572,457.903347 C980.225246,472.329121 989.479517,483.896959 1001.45563,490.837661 C1001.72782,497.914456 1002,504.855159 1002,511.931954 C1002,519.008749 1001.72782,526.085544 1001.45563,533.162339 C985.39675,542.688793 974.509374,559.972504 974.509374,579.978059 C974.509374,594.948202 980.497431,608.557423 990.29607,618.356062 C987.165949,632.237467 983.627552,645.846688 979.408693,659.183724 C961.308429,664.083044 946.202194,678.100542 941.03069,697.425635 C937.084016,711.85141 939.397584,726.549368 946.338286,738.525483 C939.80586,751.045966 932.729065,763.294265 925.107902,775.134287 C906.463269,775.270379 888.363005,784.796834 878.428274,802.080544 C870.943202,815.009304 869.446188,829.843355 872.984585,843.180392 C863.458131,853.659492 853.387307,863.594223 843.044299,873.120678 C825.080128,868.493543 805.074573,872.984585 790.920983,887.138175 C780.305791,897.753368 775.134287,911.498681 774.998195,925.380086 C763.158172,933.00125 750.909874,940.078045 738.38939,946.610471 C722.194417,937.356201 701.644494,936.539647 684.360783,946.610471 C671.432023,954.095542 662.722122,966.071657 659.047632,979.544785 C645.710596,983.763644 632.101375,987.302041 618.219969,990.29607 C605.019025,977.231218 585.421747,971.107068 566.096653,976.278572 C551.670879,980.089154 540.239133,989.343425 533.162339,1001.45563 C526.085544,1001.72782 519.144841,1002 512.068046,1002 C504.991251,1002 497.914456,1001.72782 490.837661,1001.45563 C481.311207,985.39675 464.027496,974.509374 444.021941,974.509374 C429.051798,974.509374 415.442577,980.497431 405.643938,990.29607 C391.762533,987.165949 378.153312,983.627552 364.816276,979.408693 C359.916956,961.308429 345.899458,946.202194 326.574365,941.03069 C312.14859,937.084016 297.450632,939.397584 285.474517,946.338286 C272.954034,939.80586 260.705735,932.729065 248.865713,925.107902 C248.729621,906.463269 239.203166,888.363005 221.919456,878.428274 C208.990696,870.943202 194.156645,869.446188 180.819608,872.984585 C170.340508,863.458131 160.405777,853.387307 150.879322,843.044299 C155.506457,825.080128 151.015415,805.074573 136.861825,790.920983 C126.246632,780.305791 112.501319,775.134287 98.6199139,774.998195 C90.9987502,763.158172 83.9219553,750.909874 77.3895292,738.38939 C86.6437995,722.194417 87.4603527,701.644494 77.3895292,684.360783 C69.9044577,671.432023 57.9283433,662.722122 44.4552146,659.047632 C40.2363561,645.710596 36.6979586,632.101375 33.70393,618.219969 C46.7687821,605.019025 52.8929315,585.421747 47.7214276,566.096653 C43.7747535,551.670879 34.5204833,540.103041 22.5443688,533.162339 C22.2721844,526.085544 22,519.144841 22,512.068046 C22,504.991251 22.2721844,497.914456 22.5443688,490.837661 C38.6032495,481.311207 49.4906263,464.027496 49.4906263,444.021941 C49.4906263,429.051798 43.5025691,415.442577 33.70393,405.643938 C36.8340508,391.762533 40.3724483,378.153312 44.5913068,364.816276 C62.6915706,359.916956 77.7978059,345.899458 82.9693098,326.574365 C86.9159839,312.14859 84.6024163,297.450632 77.6617137,285.474517 C84.1941397,272.954034 91.2709346,260.705735 98.8920983,248.865713 C117.536731,248.729621 135.636995,239.203166 145.571726,221.919456 C153.056798,208.990696 154.553812,194.156645 151.015415,180.819608 C160.541869,170.340508 170.612693,160.405777 180.955701,150.879322 C198.919872,155.506457 218.925427,151.015415 233.079017,136.861825 C243.694209,126.246632 248.865713,112.501319 249.001805,98.6199139 C260.841828,90.9987502 273.090126,83.9219553 285.61061,77.3895292 C301.805583,86.6437995 322.355506,87.4603527 339.639217,77.3895292 C352.567977,69.9044577 361.277878,57.9283433 364.952368,44.4552145 C378.289404,40.2363561 391.898625,36.6979586 405.780031,33.70393 C418.980975,46.7687821 438.578253,52.8929315 457.903347,47.7214276 C472.329121,43.7747535 483.896959,34.5204833 490.837661,22.5443688 C497.914456,22.2721844 504.855159,22 511.931954,22 Z M453.540452,678.658716 L453.540452,684.5117 C455.821325,684.338907 459.011241,684.182641 463.110201,684.042904 L463.674784,684.023951 L472.345871,684.023951 L470.069711,704.07584 L461.181847,704.07584 L461.181847,694.700227 L461.186182,694.264987 C461.223757,692.402951 461.505567,690.852994 462.031613,689.615116 L462.157344,689.334992 L462.229235,689.200059 C462.335411,688.991245 462.399117,688.816408 462.420352,688.675547 L462.428316,688.576272 L462.372375,688.526534 C461.800244,688.070178 459.827572,687.834131 456.454358,687.818395 L456.087583,687.817552 L456.087583,703.046148 L456.08382,703.431153 C456.058981,704.7203 455.911189,706.193877 455.640443,707.851883 L455.545641,708.411383 L455.494833,708.592595 C455.399993,708.938084 455.345799,709.181958 455.33225,709.324218 L455.328863,709.38688 L455.513937,709.339325 C456.658229,709.062166 458.471466,708.915888 460.953648,708.90049 L461.398624,708.899132 L476.410443,708.899132 L476.387098,709.403748 C475.896728,719.919751 475.406359,725.172427 474.915989,725.161774 L474.893003,725.157419 L474.822169,725.271651 C473.897576,726.649752 471.086884,726.889689 466.390093,725.991463 L466.005139,725.916139 L466.222223,726.117959 C467.710979,727.55795 468.552168,729.570207 468.745792,732.154732 L468.769048,732.527843 L469.231205,732.51028 C474.417799,732.282798 477.864155,731.088516 479.570271,728.927435 L479.716295,728.734243 L479.768314,728.685397 C480.73363,727.699031 481.378978,722.536246 481.704359,713.197042 L481.721484,712.692732 L481.740839,712.22973 C481.908583,708.263777 482.076327,705.512772 482.244072,703.976714 L482.263427,703.804868 L482.078613,703.827919 C480.744757,703.985686 478.56756,704.068156 475.547022,704.075327 L475.10978,704.07584 L477.927883,678.929688 L477.589403,678.985382 C475.862312,679.255416 473.614843,679.398872 470.846996,679.415749 L470.286488,679.417437 L463.458007,679.417437 L462.569447,679.412168 C459.33209,679.373529 456.322425,679.122379 453.540452,678.658716 Z M566.589745,694.700227 L565.831025,694.700227 L565.831025,700.499016 L566.860717,700.499016 L567.71043,700.396649 C569.708705,700.171843 571.816261,700.04539 574.033097,700.017289 L574.989861,700.011268 L581.330593,700.011268 L581.330593,709.38688 L572.659506,709.38688 L571.982078,709.424891 C569.746563,709.526732 567.511048,709.39496 565.275534,709.029578 L564.530362,708.899132 L563.771642,708.899132 L563.771642,714.481144 L564.530362,714.481144 L564.977887,714.418278 C566.946384,714.155255 569.294803,714.01435 572.023145,713.995563 L572.659506,713.993395 L581.330593,713.993395 L581.330593,725.916139 L566.318774,725.916139 L565.448082,725.912108 C562.886834,725.888221 560.490732,725.758168 558.259777,725.521949 L557.43091,725.428391 L556.67219,725.428391 L556.67219,731.010403 L557.701882,731.010403 L558.789154,730.896087 C560.970475,730.682697 563.192441,730.56076 565.455052,730.530275 L566.589745,730.522654 L602.899921,730.522654 L603.536283,730.524822 C606.264624,730.543609 608.613043,730.684515 610.581541,730.947537 L611.029065,731.010403 L612.058757,731.010403 L612.058757,725.428391 L611.300037,725.428391 L610.782702,725.495581 C608.687927,725.754386 606.287894,725.893743 603.582603,725.913651 L602.899921,725.916139 L586.641634,725.916139 L586.641634,713.722424 L596.288218,713.722424 L597.185434,713.729114 C599.264889,713.760337 601.245992,713.900841 603.128742,714.150625 L603.929613,714.264367 L604.688333,714.264367 L604.688333,708.899132 L604.200584,708.899132 L603.862104,708.954826 C602.135013,709.22486 599.887544,709.368315 597.119697,709.385193 L596.559189,709.38688 L586.641634,709.38688 L586.641634,700.011268 L594.554,700.011268 L595.029962,700.012487 C597.847523,700.027119 599.977359,700.173444 601.419469,700.451461 L601.653453,700.499016 L602.412173,700.499016 L602.412173,694.700227 L601.87023,694.700227 L601.60136,694.777991 C600.041185,695.206741 597.859152,695.433026 595.05526,695.456845 L594.554,695.458947 L574.989861,695.458947 L574.227754,695.453678 C571.45406,695.41504 568.908057,695.163889 566.589745,694.700227 Z M501.556595,694.700227 L500.797875,694.700227 L500.797875,700.499016 L501.827566,700.499016 L502.677279,700.396649 C504.675554,700.171843 506.78311,700.04539 508.999947,700.017289 L509.95671,700.011268 L516.297442,700.011268 L516.297442,709.38688 L507.626355,709.38688 L506.948927,709.424891 C504.713412,709.526732 502.477898,709.39496 500.242383,709.029578 L499.497212,708.899132 L498.738491,708.899132 L498.738491,714.481144 L499.497212,714.481144 L499.944736,714.418278 C501.913233,714.155255 504.261653,714.01435 506.989994,713.995563 L507.626355,713.993395 L516.297442,713.993395 L516.297442,725.916139 L501.285623,725.916139 L500.414931,725.912108 C497.853683,725.888221 495.457581,725.758168 493.226626,725.521949 L492.397759,725.428391 L491.639039,725.428391 L491.639039,731.010403 L492.668731,731.010403 L493.756004,730.896087 C495.937324,730.682697 498.15929,730.56076 500.421902,730.530275 L501.556595,730.522654 L537.866771,730.522654 L538.503132,730.524822 C541.231473,730.543609 543.579893,730.684515 545.54839,730.947537 L545.995914,731.010403 L547.025606,731.010403 L547.025606,725.428391 L546.266886,725.428391 L545.749552,725.495581 C543.654776,725.754386 541.254743,725.893743 538.549453,725.913651 L537.866771,725.916139 L521.608483,725.916139 L521.608483,713.722424 L531.255067,713.722424 L532.152283,713.729114 C534.231739,713.760337 536.212841,713.900841 538.095591,714.150625 L538.896462,714.264367 L539.655182,714.264367 L539.655182,708.899132 L539.167434,708.899132 L538.828954,708.954826 C537.101862,709.22486 534.854393,709.368315 532.086546,709.385193 L531.526038,709.38688 L521.608483,709.38688 L521.608483,700.011268 L529.52085,700.011268 L529.996811,700.012487 C532.814372,700.027119 534.944208,700.173444 536.386318,700.451461 L536.620302,700.499016 L537.379022,700.499016 L537.379022,694.700227 L536.837079,694.700227 L536.568209,694.777991 C535.008034,695.206741 532.826001,695.433026 530.022109,695.456845 L529.52085,695.458947 L509.95671,695.458947 L509.194603,695.453678 C506.420909,695.41504 503.874906,695.163889 501.556595,694.700227 Z M450.505571,679.959379 L450.278345,680.001383 C448.647598,680.292536 446.173511,680.523451 442.856083,680.694127 L442.376427,680.7181 L434.247284,680.7181 L433.766269,680.71361 C431.981385,680.680687 429.96369,680.466689 427.713184,680.071616 L427.093637,679.959379 L427.093637,685.812363 C427.757216,685.463111 429.923161,685.282664 433.591472,685.271022 L433.976312,685.27042 L436.794415,685.27042 L436.598653,685.87745 C433.128475,696.532962 429.037627,703.548331 424.326109,706.923557 L424.058757,707.11072 L424.356705,707.388436 C425.61631,708.598237 426.567518,709.98235 427.21033,711.540774 L427.364609,711.934012 L427.636301,711.567479 C429.782267,708.671131 431.266357,706.63676 432.088571,705.464368 L432.187901,705.322308 L432.187901,718.328938 L432.185275,718.979457 C432.159022,722.201111 431.935869,724.958644 431.515816,727.252057 L431.42918,727.704551 L437.553135,727.704551 L437.439394,726.698946 C437.18961,724.366584 437.049106,722.132575 437.017883,719.996918 L437.011193,719.087659 L444.381616,719.087659 L444.38134,719.407363 C444.376547,722.130811 444.309449,723.623735 444.180047,723.886135 L444.164839,723.910951 L449.963628,723.910951 L449.83195,723.207768 C449.46037,721.113649 449.253936,718.92516 449.21265,716.642302 L449.204908,715.781807 L449.204908,702.287428 L449.210177,701.857637 C449.245303,700.407438 449.456059,698.781609 449.842444,696.980151 L449.963628,696.434444 L449.607357,696.514613 C448.278688,696.796809 446.704275,696.949664 444.884116,696.973181 L444.381616,696.976387 L437.553135,696.976387 L441.834485,685.27042 L442.273227,685.270984 C446.463162,685.281887 449.167049,685.45088 450.384889,685.777963 L450.505571,685.812363 L450.505571,679.959379 Z M596.559189,715.510835 L592.006869,718.328938 C594.208512,720.361224 595.902083,722.409388 597.087583,724.473428 L597.317909,724.886448 L602.683144,721.580596 L602.353778,721.158693 C600.275518,718.526115 598.343988,716.643496 596.559189,715.510835 Z M531.526038,715.510835 L526.973718,718.328938 C529.175361,720.361224 530.868933,722.409388 532.054433,724.473428 L532.284758,724.886448 L537.649993,721.580596 L537.320628,721.158693 C535.242367,718.526115 533.310837,716.643496 531.526038,715.510835 Z M472.616843,715.023087 L472.221731,715.109722 C470.215229,715.529775 467.744607,715.752928 464.809864,715.779181 L464.216727,715.781807 L459.393435,715.781807 L459.119011,715.779705 C457.528211,715.755886 455.330014,715.529601 452.524421,715.10085 L452.023012,715.023087 L452.023012,720.821876 L452.409358,720.762813 C454.244907,720.496075 456.536874,720.353815 459.285258,720.336033 L459.881184,720.334127 L463.945756,720.334127 L464.962735,720.340149 C467.320075,720.36825 469.568135,720.494703 471.706914,720.719509 L472.616843,720.821876 L472.616843,715.023087 Z M444.381616,701.040959 L444.381616,714.752115 L437.011193,714.752115 L437.011193,701.040959 L444.381616,701.040959 Z M521.391706,676.382556 L514.780002,677.412248 C515.690466,679.395759 516.396076,681.37927 516.896831,683.362781 L517.056162,684.023951 L498.886835,684.02326 C495.524949,684.011296 493.312298,683.84403 492.248881,683.521462 L492.126788,683.482008 L492.201443,683.85252 C492.489005,685.361113 492.643846,687.188234 492.665966,689.333886 L492.668731,689.876935 L492.664252,690.462323 C492.63771,692.179554 492.493207,693.743434 492.230742,695.153964 L492.126788,695.675724 L492.126788,696.217667 L498.250743,696.217667 L498.250743,695.187976 L498.167946,694.086025 C498.067586,692.616758 498.00737,691.14749 497.987298,689.678223 L497.979771,688.576272 L540.413902,688.576272 L540.411277,689.13753 C540.385024,691.912878 540.161871,694.224105 539.741818,696.071211 L539.655182,696.434444 L546.266886,696.434444 L546.266886,695.946696 L546.15257,695.238783 C545.93918,693.816183 545.817243,692.352937 545.786758,690.849045 L545.779137,690.093712 L545.779918,689.691894 C545.791884,686.655164 545.94146,684.627575 546.228646,683.609127 L546.266886,683.482008 L546.139768,683.524497 C545.12132,683.843593 543.093731,684.009789 540.057,684.023084 L523.125923,684.023951 L523.046395,683.363038 C522.710327,680.743754 522.158763,678.416927 521.391706,676.382556 Z M586.424856,676.382556 L579.813153,677.412248 C580.723617,679.395759 581.429227,681.37927 581.929982,683.362781 L582.089313,684.023951 L563.919985,684.02326 C560.558099,684.011296 558.345448,683.84403 557.282032,683.521462 L557.159939,683.482008 L557.234594,683.85252 C557.522156,685.361113 557.676996,687.188234 557.699116,689.333886 L557.701882,689.876935 L557.697403,690.462323 C557.670861,692.179554 557.526358,693.743434 557.263893,695.153964 L557.159939,695.675724 L557.159939,696.217667 L563.283894,696.217667 L563.283894,695.187976 L563.201097,694.086025 C563.100737,692.616758 563.040521,691.14749 563.020449,689.678223 L563.012922,688.576272 L605.447053,688.576272 L605.444428,689.13753 C605.418174,691.912878 605.195021,694.224105 604.774969,696.071211 L604.688333,696.434444 L611.300037,696.434444 L611.300037,695.946696 L611.185721,695.238783 C610.97233,693.816183 610.850393,692.352937 610.819909,690.849045 L610.812288,690.093712 L610.813068,689.691894 C610.825034,686.655164 610.974611,684.627575 611.261797,683.609127 L611.300037,683.482008 L611.172918,683.524497 C610.15447,683.843593 608.126881,684.009789 605.090151,684.023084 L588.159074,684.023951 L588.079546,683.363038 C587.743477,680.743754 587.191914,678.416927 586.424856,676.382556 Z M427.337553,558.606273 L426.658324,558.65309 C404.575924,560.286829 393.079383,572.133905 392.168702,594.194317 L392.144346,594.865941 L392.179728,595.402734 C393.414693,612.866132 402.39503,623.111897 419.120739,626.140032 L419.62995,626.229584 L419.871462,626.251039 C423.013179,626.470577 426.315511,624.383112 429.778456,619.988642 L430.052181,619.636917 L430.351271,619.251648 C435.182655,613.00292 437.480429,608.78108 437.244592,606.586129 L437.226553,606.451583 L437.222634,606.22817 C437.152082,604.252721 436.129082,603.229721 434.153634,603.159169 L433.93022,603.15525 L431.167117,603.15525 L430.73617,603.256564 C429.601197,603.512514 428.57998,603.654709 427.672519,603.683148 L427.337553,603.68848 L427.001311,603.650928 C419.987668,602.793924 416.07214,597.639045 415.254727,588.186289 L415.21868,587.740043 L415.237872,587.271938 C415.731201,576.725017 420.1891,570.493377 428.611568,568.577019 L428.98572,568.495273 L429.348587,568.450506 C435.209667,567.70227 437.848889,566.118738 437.266251,563.699908 L437.226553,563.550773 L437.222896,563.362428 C437.098552,560.191658 433.803438,558.606273 427.337553,558.606273 Z M248.075183,525.061232 L247.143955,525.174641 C216.862769,529.005597 200.504627,545.176375 198.069529,573.686975 L198,574.55471 L198.103786,575.539848 C201.654429,607.569749 220.882077,624.450385 255.786732,626.181755 L256.849247,626.229584 L257.528452,626.227165 C279.640942,626.069113 294.194322,618.165688 301.188591,602.51689 L301.398225,602.040314 L301.394708,601.777015 C301.322032,599.098117 300.122876,597.71681 297.797239,597.633095 L297.568661,597.629044 L297.405922,597.633248 C295.965507,597.706126 293.744868,598.72642 290.744004,600.694129 L290.394288,600.925377 L289.857539,601.313133 C282.160013,606.808523 274.285439,609.618665 266.233815,609.74356 L265.671787,609.747917 L264.971166,609.689135 C242.187823,607.653772 229.788555,594.349589 227.773365,569.776589 L227.715477,569.028504 L227.730335,568.468047 C228.215195,552.833612 234.480934,542.101364 246.527553,536.271301 L246.960247,536.065169 L247.321562,535.927569 C252.796235,533.813836 255.258386,531.522022 254.708015,529.052129 L254.66785,528.890796 L254.663928,528.706266 C254.559345,526.276244 252.363097,525.061232 248.075183,525.061232 Z M455.356387,525.061232 L455.100385,525.066108 C453.032863,525.144128 450.497221,526.158385 447.493462,528.108878 L447.115554,528.357566 L446.609685,528.643679 C444.438127,529.862963 442.533579,530.815237 440.89604,531.500501 L440.522887,531.653899 L440.138873,531.836081 C433.550772,534.976318 430.376435,537.263112 430.615865,538.696466 L430.633887,538.779796 L430.601553,538.924769 C430.339217,540.336897 431.533382,542.060123 434.184048,544.094446 L434.46345,544.306003 L434.608119,544.314334 C434.895943,544.347661 435.174677,544.480969 435.444322,544.714257 L435.578387,544.839233 L435.804491,544.946625 C439.604838,546.825382 441.19081,551.412261 440.562406,558.707262 L440.522887,559.139503 L440.522887,598.162274 L440.523521,598.842315 C440.534934,604.914951 440.700419,609.69898 441.019977,613.194403 L441.056117,613.577481 L441.148782,613.988904 C443.01193,622.01335 447.278568,626.092443 453.948696,626.226184 L454.289927,626.229584 L454.64362,626.225809 C462.045759,626.06723 467.731785,620.91218 471.701698,610.760659 L471.88653,610.281147 L471.881919,610.056408 C471.798917,608.057096 470.595388,606.688082 468.271331,605.949363 L468.008491,605.869878 L467.781477,605.740312 C464.719437,603.924443 463.317406,600.257592 463.575382,594.739758 L463.597221,594.33271 L463.597221,538.246566 L463.595145,537.831306 C463.509324,529.317924 460.763072,525.061232 455.356387,525.061232 Z M574.703049,557.491336 L574.427345,557.497059 C572.398107,557.580994 570.205937,558.588207 567.850836,560.518698 L567.528676,560.78767 L567.118907,561.12643 C565.217254,562.676384 563.464057,563.79334 561.859316,564.477299 L561.517715,564.617234 L561.446498,564.683514 C561.031564,565.045783 560.054872,565.548492 558.516424,566.19164 L558.221382,566.313876 L557.870186,566.474063 C554.18001,568.188094 552.27901,570.073886 552.167187,572.131438 L552.161945,572.324837 L552.167668,572.555096 C552.251602,574.243659 553.258815,575.932222 555.189307,577.620784 L555.458279,577.851043 L555.785232,578.117547 C559.111776,580.89304 560.827025,584.338717 560.930979,588.454578 L560.936009,588.85498 L560.936009,606.984814 L560.964266,607.440295 C561.783254,619.813729 566.435254,626.075894 574.920267,626.22679 L575.236279,626.229584 L575.584511,626.209753 C582.984004,625.70835 588.499438,620.192916 592.130812,609.663452 L592.299653,609.166211 L592.294379,608.950747 C592.213508,607.311939 591.202633,605.974016 589.261752,604.936976 L589.003319,604.803417 L588.724813,604.611889 C585.708413,602.472228 584.15451,599.185511 584.063104,594.751737 L584.058819,594.33271 L584.058819,572.324837 L584.056735,571.88535 C583.965032,562.289341 580.847137,557.491336 574.703049,557.491336 Z M519.150135,557.491336 L518.646644,557.509178 C508.149709,557.913962 502.464653,560.216175 501.591474,564.415817 L501.553531,564.617234 L501.558606,564.783181 C501.66348,566.482331 503.393909,567.696666 506.749891,568.426188 L507.079738,568.495273 L507.50733,568.633975 C515.141107,571.165398 519.37925,575.574936 520.221759,581.862591 L520.265071,582.213837 L502.668468,595.980877 L502.086762,595.447647 L501.791067,594.916722 C499.176503,590.144105 497.822532,585.525561 497.729155,581.061089 L497.723968,580.565671 L497.730551,579.968405 C497.761272,578.588748 497.899517,577.306841 498.145285,576.122682 L498.257198,575.62117 L498.3148,575.326128 C498.613234,573.78768 498.771228,572.810988 498.788783,572.396054 L498.790428,572.324837 L498.787473,572.054407 C498.720496,569.037855 497.514892,567.664382 495.170663,567.93399 L494.960865,567.962043 L494.56289,568.092973 C484.675778,571.428187 479.324732,579.452713 478.509752,592.166549 L478.479197,592.684544 L478.536631,593.319456 C480.515615,613.963229 492.552719,624.921405 514.64794,626.193986 L515.320571,626.229584 L515.868029,626.22733 C533.679839,626.080047 544.274018,618.715131 547.650565,604.132585 L547.750675,603.68848 L547.747363,603.401905 C547.67669,600.390721 546.475258,598.839505 544.143067,598.748257 L543.921112,598.74398 L543.787474,598.749254 C542.749246,598.830124 541.396456,599.841 539.729106,601.781881 L539.509842,602.040314 L539.21547,602.402503 C534.976581,607.535559 529.896709,610.160417 523.975852,610.277078 L523.561405,610.281147 L523.099008,610.276582 C517.573607,610.167008 512.889344,608.085114 509.046218,604.030897 L508.727904,603.68848 L541.158008,578.384273 L541.403491,578.134284 C542.997984,576.479848 543.835093,574.984861 543.914817,573.649323 L543.921112,573.439773 L543.786613,573.046652 C540.40371,563.409822 532.191551,558.224717 519.150135,557.491336 Z M346.582369,557.1967 L346.480432,557.491336 L346.367969,557.815637 C346.052555,558.666221 345.613044,559.403048 345.049436,560.02612 L344.832266,560.254439 L344.619624,560.729229 C341.535153,567.639384 339.958646,572.198891 339.890102,574.407748 L339.887765,574.55471 L339.891505,574.790318 C339.966301,577.108999 341.16304,578.305738 343.481721,578.380534 L343.717329,578.384273 L350.358472,578.384273 L350.712465,578.433538 C358.797317,579.631605 363.068526,585.32977 363.526093,595.528034 L363.543805,595.980877 L363.52796,596.470231 C363.092477,608.46342 359.349245,614.882441 352.298267,615.727296 L352.006638,615.758878 L351.641007,615.671125 C340.965866,613.01928 334.693497,603.523829 332.823899,587.184772 L332.761868,586.625107 L332.765331,586.188148 C332.825348,582.365261 333.66559,577.608892 335.286056,571.91904 L335.476496,571.258376 L335.610981,570.895567 C336.576227,568.270148 337.079834,566.418654 337.121801,565.341084 L337.124662,565.19894 L337.120109,565.047807 C337.038144,563.711474 335.849659,563.019445 333.554653,562.971718 L333.295098,562.969067 L332.837251,563.061213 C318.255759,566.077717 310.357221,575.606614 309.141639,591.647903 L309.105828,592.151313 L309.164498,592.796837 C311.192577,613.785538 324.132473,624.917904 347.984186,626.193934 L348.710305,626.229584 L349.378069,626.203878 C371.091469,625.252711 382.762271,613.389727 384.390477,590.614926 L384.436743,589.921441 L384.37879,589.253565 C382.397589,567.53288 371.801795,555.497792 352.591408,553.148299 L352.006638,553.080067 L351.773653,553.05278 C349.3873,552.822792 347.656872,554.204099 346.582369,557.1967 Z M650.872651,525.047111 L650.567194,525.061232 L650.410599,525.064195 C648.22568,525.145171 644.204469,526.886155 638.346966,530.287147 L637.915091,530.538963 L637.685726,530.676994 C634.30122,532.713886 633.434849,533.239897 635.086615,532.255026 L635.177,532.201 L634.851983,532.40461 C632.214192,534.044607 630.355965,535.055483 629.277301,535.437237 L629.141027,535.483463 L629.006962,535.6198 C628.737317,535.874297 628.458583,536.019723 628.170759,536.05608 L628.02609,536.065169 L627.795084,536.177081 C627.270032,536.42285 626.84273,536.561095 626.513176,536.591816 L626.377924,536.598399 L626.040915,536.803899 C622.72432,538.853693 621.012529,540.747267 620.905542,542.484621 L620.900193,542.657836 L620.873,542.840554 C620.622893,544.906697 622.347363,546.814298 626.046413,548.563355 L626.377924,548.717272 L626.707312,548.843612 C632.246772,551.024544 634.719022,554.89618 634.124062,560.458523 L634.085527,560.78767 L634.085527,592.684544 L634.101082,593.184227 C634.348737,602.618413 631.866628,608.644163 626.654753,611.261477 L626.377924,611.396084 L626.035507,611.512807 C621.98129,612.936456 619.899396,615.18674 619.789822,618.263658 L619.785257,618.521981 L619.788479,618.790051 C619.906647,623.661174 623.274418,626.140228 629.891792,626.227212 L630.255963,626.229584 L631.219488,626.223001 C633.45375,626.19228 635.590262,626.054035 637.629025,625.808266 L638.496797,625.696354 L638.9024,625.625913 C640.765172,625.307792 642.207318,625.138128 643.228838,625.11692 L643.441297,625.114648 L644.020636,625.081842 C649.760058,624.758987 653.880475,624.592353 656.381886,624.581938 L656.626631,624.581417 L656.958645,624.582149 C659.764707,624.59432 663.661681,624.758391 668.649567,625.074361 L669.278734,625.114648 L669.538895,625.11809 C670.51701,625.143332 671.761215,625.307402 673.271508,625.610303 L673.690004,625.696354 L674.235102,625.727259 C679.993565,626.051994 683.962852,626.219282 686.142964,626.229123 L686.342107,626.229584 L687.031041,626.216113 C709.430814,625.684308 721.27577,616.165388 722.565911,597.659353 L722.601775,597.095813 L722.577617,596.66719 C721.743932,583.162471 714.385153,576.151849 700.501279,575.635323 L700.060672,575.62117 L699.600746,575.62278 C690.170464,575.689308 685.380479,577.81819 685.230792,582.009426 L685.227171,582.213837 L685.232424,582.378947 C685.319837,583.752102 686.498162,585.111449 688.767398,586.456987 L689.056735,586.625107 L689.398042,586.848451 C693.098008,589.324381 695.002402,592.432352 695.111225,596.172365 L695.116171,596.514108 L695.089215,596.887131 C694.21673,607.894262 686.868165,613.630883 673.04352,614.096996 L672.575068,614.110711 L671.910846,614.105971 C669.011078,614.064893 665.832162,613.756804 662.3741,613.181705 L661.571131,613.04425 L659.922964,613.04425 L659.922964,537.713336 L659.953251,537.327094 C660.564436,528.895503 657.537569,524.802176 650.872651,525.047111 Z M754.26947,525.047111 L753.965419,525.061232 L753.808824,525.064195 C751.623905,525.145171 747.602694,526.886155 741.74519,530.287147 L741.313315,530.538963 L741.083929,530.676994 C739.654637,531.537015 738.671617,532.127689 738.134868,532.449016 L738.115,532.46 L737.869539,532.614955 C735.437439,534.13132 733.706076,535.072081 732.675448,535.437237 L732.539251,535.483463 L732.394582,535.6198 C732.106759,535.874297 731.828025,536.019723 731.55838,536.05608 L731.424315,536.065169 L731.207145,536.166483 C730.643536,536.422433 730.204025,536.564628 729.888611,536.593067 L729.776148,536.598399 L729.436157,536.803899 C726.090212,538.853693 724.363273,540.747267 724.255339,542.484621 L724.249942,542.657836 L724.225405,542.840554 C724.005162,544.90491 725.741694,546.810997 729.435002,548.558816 L729.776148,548.717272 L730.103742,548.843612 C735.613277,551.024544 738.085527,554.89618 737.520492,560.458523 L737.483751,560.78767 L737.483751,592.684544 L737.499306,593.184227 C737.746962,602.618413 735.264852,608.644163 730.052978,611.261477 L729.776148,611.396084 L729.433731,611.512807 C725.379515,612.936456 723.29762,615.18674 723.188047,618.263658 L723.183481,618.521981 L723.186689,618.790051 C723.304309,623.661174 726.656489,626.140228 733.243228,626.227212 L733.605712,626.229584 L734.482149,626.224252 C736.803802,626.195813 739.001358,626.053618 741.074816,625.797668 L741.846546,625.696354 L742.252149,625.625913 C744.114921,625.307792 745.557067,625.138128 746.578587,625.11692 L746.791046,625.114648 L747.370432,625.081842 C753.110802,624.758987 757.246367,624.592353 759.777128,624.581938 L760.024855,624.581417 L760.353411,624.582149 C763.136264,624.59434 767.041234,624.758917 772.068322,625.075881 L772.676959,625.114648 L772.936833,625.11809 C773.912845,625.143332 775.143376,625.307402 776.628428,625.610303 L777.039753,625.696354 L777.584851,625.727259 C783.343314,626.051994 787.312602,626.219282 789.492713,626.229123 L789.691856,626.229584 L790.381755,626.216113 C812.812884,625.684308 824.673676,616.165388 825.964131,597.659353 L826,597.095813 L825.974853,596.66719 C825.11017,583.162471 817.75139,576.151849 803.898514,575.635323 L803.458896,575.62117 L802.998971,575.62278 C793.568689,575.689308 788.778704,577.81819 788.629017,582.009426 L788.625396,582.213837 L788.630649,582.378947 C788.718062,583.752102 789.896386,585.111449 792.165623,586.456987 L792.454959,586.625107 L792.796267,586.848451 C796.496233,589.324381 798.400627,592.432352 798.50945,596.172365 L798.514396,596.514108 L798.487439,596.887131 C797.614954,607.894262 790.266389,613.630883 776.441744,614.096996 L775.973292,614.110711 L775.30907,614.105971 C772.409302,614.064893 769.230387,613.756804 765.772325,613.181705 L764.969355,613.04425 L763.321189,613.04425 L763.321189,537.713336 L763.350071,537.327094 C763.930812,528.895503 760.903945,524.802176 754.26947,525.047111 Z M612.318018,557.446195 L612.077653,557.491336 L611.652814,557.53278 C599.948872,558.752915 592.249599,566.087871 588.554995,579.537647 L588.421613,580.03244 L588.425429,580.288111 C588.506837,582.974559 589.890765,584.358487 592.577213,584.439894 L592.832883,584.44371 L593.030643,584.438007 C594.038732,584.380977 595.336164,583.896222 596.92294,582.983742 L597.244153,582.795543 L597.565366,582.607344 C599.152141,581.694864 600.449574,581.21011 601.457663,581.15308 L601.655423,581.147377 L602.070189,581.153687 C603.580483,581.199963 604.975086,581.50076 606.253997,582.056077 L606.599923,582.213837 L607.018418,582.299889 C608.528712,582.602789 609.772916,582.76686 610.751031,582.792101 L611.011193,582.795543 L611.286711,582.808286 C617.206214,583.015585 619.871161,578.751671 619.28155,570.016544 L619.252026,569.610209 L619.28138,569.20863 C619.882879,560.44723 617.561758,556.526418 612.318018,557.446195 Z M791.921729,525.061232 L791.344653,525.121703 C777.574497,526.609323 769.540667,530.712708 767.243162,537.431857 L767.150753,537.713336 L767.197566,537.953718 C767.618032,539.922166 768.811804,541.103501 770.77888,541.497721 L771.028792,541.5429 L771.363758,541.537567 C772.271219,541.509128 773.292436,541.366933 774.427409,541.110983 L774.858356,541.009669 L775.405159,540.899145 C776.84779,540.619926 778.166323,540.464805 779.36076,540.43378 L779.802856,540.427963 L780.147138,540.470127 C786.409463,541.298941 789.948741,545.196824 790.764972,552.163777 L790.806793,552.546836 L790.78777,552.949556 C790.33324,561.346069 786.41611,565.794004 779.036381,566.293361 L778.68792,566.313876 L772.095253,566.313876 L771.826839,566.317095 C769.185303,566.381477 767.82193,567.411581 767.736719,569.407408 L767.732459,569.610209 L767.736079,569.812244 C767.873665,573.618092 771.932461,575.553826 779.912466,575.619444 L780.336086,575.62117 L781.026038,575.597306 C803.460652,574.734826 815.495668,565.754451 817.131086,548.656181 L817.17746,548.135566 L817.142301,547.686945 C815.909579,532.955069 807.502722,525.413164 791.921729,525.061232 Z M688.523504,525.061232 L687.94773,525.121703 C674.208592,526.609323 666.190484,530.712708 663.893404,537.431857 L663.801003,537.713336 L663.844292,537.953718 C664.236618,539.925321 665.418582,541.107285 667.390185,541.499611 L667.630567,541.5429 L667.965533,541.537567 C668.872994,541.509128 669.894211,541.366933 671.029184,541.110983 L671.460131,541.009669 L672.006935,540.899145 C673.449565,540.619926 674.768099,540.464805 675.962535,540.43378 L676.404631,540.427963 L676.750584,540.470127 C683.042999,541.298941 686.582277,545.196824 687.368418,552.163777 L687.408568,552.546836 L687.389557,552.949556 C686.935619,561.344019 683.035953,565.791832 675.690556,566.292994 L675.338171,566.313876 L668.745504,566.313876 L668.474107,566.317095 C665.803221,566.381477 664.424699,567.411581 664.338542,569.407408 L664.334234,569.610209 L664.337869,569.812244 C664.475984,573.618092 668.55039,575.553826 676.561087,575.619444 L676.986337,575.62117 L677.675329,575.597306 C700.078903,574.734826 712.113922,565.754451 713.780386,548.656181 L713.827711,548.135566 L713.792547,547.686945 C712.559505,532.955069 704.136491,525.413164 688.523504,525.061232 Z M284.199173,525.031052 L283.801621,525.061232 L277.208954,525.061232 L276.712381,525.108606 C273.448798,525.416315 270.955888,525.577863 269.233648,525.593248 L268.96812,525.594463 L267.853184,525.594463 L267.517895,525.621751 C263.104,526.01063 260.841878,527.409527 260.731531,529.818439 L260.727287,530.005732 L260.732474,530.156865 C260.825852,531.523286 262.179822,533.057786 264.794386,534.760365 L265.090081,534.950233 L265.548908,535.166329 C269.94523,537.288423 273.210289,540.372089 275.344085,544.41733 L275.560787,544.839233 L275.747114,545.264163 C279.299486,553.262689 283.54561,556.978048 288.485487,556.41024 L288.746121,556.3764 L289.081301,556.356185 C295.733187,555.891607 299.282844,551.810284 299.730272,544.112214 L299.750058,543.724297 L299.745229,543.211375 C299.648657,538.103459 298.103501,533.634625 295.10976,529.804872 L294.805558,529.424026 L294.536205,529.129434 C291.732194,526.137753 288.286517,524.771626 284.199173,525.031052 Z M512,243 C445.73,243 392,296.73 392,363 C392,429.279 445.73,483 512,483 C578.279,483 632,429.279 632,363 C632,296.73 578.279,243 512,243 Z M512,262.998 C567.233,262.998 611.999,307.767 611.999,363 C611.999,418.233 567.233,462.999 512,462.999 C456.767,462.999 412.001,418.233 412.001,363 C412.001,307.767 456.767,262.998 512,262.998 Z M500.142349,292 C460.843315,292 429,323.395042 429,362.140845 C429,400.886648 460.843315,432.28169 500.142349,432.28169 C535.389826,432.28169 564.56886,406.995915 570.217563,373.829817 L595,373.829817 L595,350.451873 L570.217563,350.451873 C564.56886,317.285775 535.389826,292 500.142349,292 Z M500.309859,314.211268 C526.143378,314.211268 547.070423,335.148833 547.070423,360.971831 C547.070423,386.80535 526.143378,407.732394 500.309859,407.732394 C474.486861,407.732394 453.549296,386.80535 453.549296,360.971831 C453.549296,335.148833 474.486861,314.211268 500.309859,314.211268 Z"/>
  </g>
</svg>
